<?xml version="1.0" encoding="utf-8"?>
<!-- Generator: Adobe Illustrator 20.0.0, SVG Export Plug-In . SVG Version: 6.00 Build 0)  -->
<svg version="1.1" id="Layer_1" xmlns="http://www.w3.org/2000/svg" xmlns:xlink="http://www.w3.org/1999/xlink" x="0px" y="0px"
	 viewBox="0 0 159.9 71.1" style="enable-background:new 0 0 159.9 71.1;" xml:space="preserve">
<style type="text/css">
	.st0{fill:#778D87;}
</style>
<title>Artboard 1</title>
<path class="st0" d="M76.2,39.2c-0.5,0.3-1,0.5-1.5,0.6c-0.5,0.2-1,0.2-1.6,0.2c-0.6,0-1.2-0.1-1.8-0.3c-0.5-0.2-1-0.5-1.3-0.9
	c-0.4-0.4-0.7-0.8-0.8-1.4C69.1,37,69,36.4,69,35.8c0-0.6,0.1-1.2,0.3-1.7c0.2-0.5,0.5-1,0.8-1.3c0.4-0.4,0.8-0.7,1.3-0.9
	c0.6-0.2,1.1-0.3,1.7-0.3c0.5,0,1,0.1,1.6,0.2c0.5,0.2,1,0.4,1.5,0.6l0.5-1c-0.5-0.3-1-0.5-1.5-0.7c-0.6-0.2-1.3-0.3-1.9-0.3
	c-0.7,0-1.5,0.1-2.2,0.4c-0.7,0.3-1.3,0.7-1.8,1.2c-0.5,0.5-0.9,1-1.1,1.7c-0.3,0.7-0.4,1.4-0.4,2.1c0,0.7,0.1,1.4,0.4,2.1
	c0.3,0.6,0.7,1.2,1.2,1.7c0.5,0.5,1.1,0.9,1.7,1.1c1.3,0.5,2.7,0.5,4.1,0.1c0.5-0.2,1-0.4,1.5-0.7L76.2,39.2L76.2,39.2z M86.6,37.5
	c-0.2,0.5-0.4,1-0.8,1.4c-0.7,0.8-1.7,1.2-2.8,1.2c-0.5,0-1.1-0.1-1.6-0.3c-0.5-0.2-0.9-0.5-1.2-0.9c-0.3-0.4-0.6-0.9-0.8-1.4
	c-0.4-1.1-0.4-2.3,0-3.4c0.2-0.5,0.4-1,0.8-1.4c1.4-1.6,3.8-1.7,5.3-0.3c0.1,0.1,0.2,0.2,0.3,0.3c0.4,0.4,0.6,0.9,0.8,1.4
	C87,35.2,87,36.4,86.6,37.5L86.6,37.5z M87.7,33.7c-0.5-1.3-1.5-2.2-2.7-2.8c-0.6-0.3-1.3-0.4-2-0.4c-0.7,0-1.4,0.1-2,0.4
	c-0.6,0.3-1.2,0.6-1.6,1.1c-1,1-1.6,2.4-1.6,3.8c0,0.7,0.1,1.4,0.4,2.1c0.3,0.6,0.6,1.2,1.1,1.7c1,1,2.3,1.5,3.6,1.5
	c1.4,0,2.7-0.5,3.6-1.5c1-1,1.6-2.4,1.6-3.8C88.1,35.1,88,34.4,87.7,33.7L87.7,33.7z M96.2,41v-1h-4.9v-9.3h-1.1V41L96.2,41z
	 M103.9,41v-1H99v-9.3h-1.1V41L103.9,41z M111.4,41v-1h-4.9v-3.7h4.4v-1h-4.4v-3.6h4.9v-1h-6V41L111.4,41z M118.7,35.9v1h2.7v2.5
	c-0.4,0.2-0.8,0.4-1.2,0.5c-0.5,0.1-0.9,0.2-1.4,0.2c-0.6,0-1.1-0.1-1.7-0.3c-0.5-0.2-1-0.5-1.4-0.9c-0.4-0.4-0.7-0.9-0.9-1.4
	c-0.2-0.5-0.3-1.1-0.3-1.7c0-0.6,0.1-1.1,0.3-1.6c0.2-0.5,0.5-1,0.8-1.4c0.4-0.4,0.8-0.7,1.3-0.9c0.6-0.2,1.2-0.4,1.8-0.3
	c0.6,0,1.1,0.1,1.7,0.3c0.6,0.2,1.1,0.5,1.5,0.8l0.6-0.9c-0.3-0.2-0.5-0.4-0.8-0.5c-0.3-0.2-0.6-0.3-0.9-0.4c-0.3-0.1-0.7-0.2-1-0.2
	c-0.4-0.1-0.8-0.1-1.2-0.1c-0.7,0-1.4,0.1-2,0.4c-0.6,0.2-1.2,0.6-1.7,1.1c-0.5,0.5-0.9,1-1.2,1.7c-0.3,0.7-0.5,1.4-0.5,2.2
	c0,0.8,0.1,1.5,0.5,2.2c0.3,0.6,0.7,1.2,1.2,1.7c0.5,0.5,1.1,0.8,1.8,1.1c0.7,0.3,1.4,0.4,2.1,0.4c0.7,0,1.4-0.1,2.1-0.3
	c0.6-0.2,1.2-0.5,1.7-0.9v-4L118.7,35.9z M130.7,41v-1h-4.9v-3.7h4.4v-1h-4.4v-3.6h4.9v-1h-6V41L130.7,41z"/>
<path class="st0" d="M75.4,26v-1h-4.9v-9.3h-1.1V26H75.4z M82.6,22.2h-3.8l1.9-4.4L82.6,22.2z M85.4,26l-4.6-10.4h-0.2L76,26h1.2
	l1.2-2.8h4.6l1.2,2.8L85.4,26z M93.7,22.4c-0.2,0.5-0.4,1-0.8,1.4c-0.4,0.4-0.9,0.7-1.4,0.9c-0.6,0.2-1.3,0.4-2,0.3h-1
	c-0.3,0-0.5,0-0.8-0.1v-8.3c0.2,0,0.5-0.1,0.7-0.1h0.9c0.7,0,1.4,0.1,2,0.3c0.5,0.2,1,0.5,1.4,0.9c0.4,0.4,0.7,0.8,0.9,1.3
	c0.2,0.5,0.3,1.1,0.3,1.7C94,21.3,93.9,21.9,93.7,22.4L93.7,22.4z M94.8,18.8c-0.3-0.6-0.6-1.2-1.1-1.6c-0.5-0.5-1.1-0.9-1.8-1.1
	c-0.8-0.3-1.7-0.4-2.6-0.4c-0.5,0-1,0-1.4,0l-1.2,0.1v10.1c0.4,0,0.8,0.1,1.3,0.1c0.5,0,1,0,1.5,0c0.9,0,1.7-0.1,2.5-0.4
	c0.7-0.3,1.3-0.7,1.8-1.2c0.5-0.5,0.8-1.1,1.1-1.7c0.2-0.6,0.4-1.3,0.4-2C95.2,20,95,19.4,94.8,18.8L94.8,18.8z M98.6,26V15.7h-1.1
	V26H98.6z M107.4,26v-1h-4.9v-3.7h4.4v-1h-4.4v-3.6h4.8v-1h-6V26H107.4z M114.8,22.3c-0.1-0.3-0.2-0.5-0.4-0.8
	c-0.2-0.3-0.5-0.5-0.8-0.7c-0.4-0.3-0.9-0.5-1.3-0.7c-0.5-0.2-1-0.5-1.3-0.9c-0.3-0.3-0.4-0.6-0.4-1c0-0.2,0-0.5,0.1-0.7
	c0.1-0.2,0.2-0.4,0.4-0.5c0.2-0.2,0.4-0.3,0.6-0.4c0.3-0.1,0.6-0.1,0.8-0.1c0.3,0,0.7,0.1,1,0.2c0.3,0.1,0.6,0.3,0.9,0.5l0.5-1
	c-0.3-0.2-0.6-0.4-1-0.5c-0.4-0.1-0.8-0.2-1.2-0.2c-0.4,0-0.9,0.1-1.3,0.2c-0.4,0.1-0.7,0.4-1,0.6c-0.3,0.3-0.5,0.6-0.6,0.9
	c-0.1,0.3-0.2,0.7-0.2,1.1c0,0.3,0,0.6,0.1,0.9c0.1,0.3,0.2,0.5,0.4,0.7c0.2,0.2,0.5,0.5,0.8,0.6c0.4,0.2,0.7,0.4,1.1,0.6
	c0.3,0.2,0.7,0.3,1,0.5c0.2,0.1,0.4,0.3,0.6,0.5c0.1,0.2,0.2,0.3,0.3,0.5c0.1,0.2,0.1,0.4,0.1,0.6c0,0.2,0,0.5-0.1,0.7
	c-0.1,0.2-0.2,0.4-0.4,0.6c-0.2,0.2-0.4,0.3-0.6,0.4c-0.3,0.1-0.6,0.2-0.8,0.1c-0.4,0-0.9-0.1-1.2-0.2c-0.4-0.2-0.9-0.4-1.2-0.7
	l-0.5,1c0.4,0.3,0.9,0.5,1.4,0.7c0.5,0.2,1,0.3,1.6,0.2c0.4,0,0.9-0.1,1.2-0.2c0.4-0.1,0.7-0.3,1-0.6c0.3-0.3,0.5-0.6,0.7-0.9
	c0.2-0.4,0.2-0.8,0.2-1.2C115,22.8,114.9,22.5,114.8,22.3L114.8,22.3z M117.5,15.8c-0.1-0.2-0.3-0.3-0.6-0.2c-0.4,0-0.7,0.3-0.7,0.7
	c0,0,0,0,0,0c0,0.2,0.1,0.4,0.2,0.5c0.1,0.1,0.3,0.2,0.5,0.2c-0.1,0.2-0.2,0.5-0.3,0.7c-0.2,0.3-0.4,0.5-0.6,0.7l0.2,0.2
	c0.2-0.1,0.5-0.3,0.7-0.5c0.2-0.2,0.3-0.3,0.4-0.5c0.1-0.2,0.2-0.4,0.3-0.6c0.1-0.2,0.1-0.3,0.1-0.5C117.7,16.2,117.6,16,117.5,15.8
	z"/>
<path class="st0" d="M76.2,8.7c-0.5,0.3-1,0.5-1.5,0.6c-0.5,0.2-1,0.2-1.6,0.2c-0.6,0-1.2-0.1-1.8-0.3c-0.5-0.2-1-0.5-1.3-0.9
	C69.8,8,69.5,7.5,69.3,7C69.1,6.5,69,5.9,69,5.3c0-0.6,0.1-1.1,0.3-1.7c0.2-0.5,0.5-1,0.8-1.4c0.4-0.4,0.8-0.7,1.3-0.9
	c0.5-0.2,1.1-0.3,1.7-0.3c0.5,0,1,0.1,1.6,0.2c0.5,0.2,1,0.4,1.5,0.6l0.5-1c-0.5-0.3-1-0.5-1.5-0.7C74.5,0.1,73.8,0,73.2,0
	c-0.7,0-1.5,0.1-2.2,0.4c-0.6,0.3-1.2,0.6-1.7,1.1c-0.5,0.5-0.9,1-1.1,1.7c-0.3,0.7-0.4,1.4-0.4,2.1c0,0.7,0.1,1.4,0.4,2.1
	c0.3,0.6,0.7,1.2,1.2,1.7c0.5,0.5,1.1,0.9,1.7,1.1c0.7,0.3,1.4,0.4,2.2,0.4c0.6,0,1.3-0.1,1.9-0.3c0.5-0.2,1-0.4,1.5-0.7L76.2,8.7
	L76.2,8.7z M86,10.5V0.2h-1.1v4.6h-5.5V0.2h-1.1v10.3h1.1V5.8h5.5v4.7H86z M94.4,10.5v-1h-4.9V5.8h4.4v-1h-4.4V1.2h4.9v-1h-6v10.3
	H94.4z M102.5,10.5v-1h-4.9V0.2h-1.1v10.3H102.5z M110,1.2v-1h-8v1h3.4v9.2h1.1V1.2L110,1.2z M117.6,10.5v-1h-4.9V5.8h4.4v-1h-4.4
	V1.2h4.9v-1h-6v10.3H117.6z M127.7,10.6V0.2h-1.1v7.7L120,0l-0.2,0.1v10.4h1.1V2.7l6.7,8L127.7,10.6L127.7,10.6z M138,10.5V0.2h-1.1
	v4.6h-5.5V0.2h-1.1v10.3h1.1V5.8h5.5v4.7H138z M145.9,6.7h-3.8l1.9-4.4L145.9,6.7z M148.8,10.5L144.1,0H144l-4.7,10.5h1.2l1.2-2.8
	h4.6l1.2,2.8H148.8z M159.9,10.5L159.6,0h-0.2L155,7.8L150.6,0h-0.2l-0.4,10.4h1.1l0.1-7.3l3.7,6.2h0.1l3.6-6.2l0.1,7.2L159.9,10.5z
	"/>
<path class="st0" d="M3,5.9c1.7-0.1,2.8,0.1,2.9,0.6c0,0.3-0.1,0.6-0.2,0.9C5.6,7.9,5.5,8.3,5.4,8.8c-0.2,1-0.2,2,0,3
	c0.1,0.5,0.3,0.9,0.5,1.3l0.1,0.1l0,0c0.3,0.7,0.8,1.4,1.3,1.9l0.1,0.1l0,0c0.9,0.9,1.9,1.6,3,2c0.8,0.3,1.5,0.5,2.4,0.6
	c-0.3,1.5-0.7,2.2-1.8,2.3c-0.1,0-0.3,0-0.4,0l0,0c-0.3,0-0.6-0.1-0.9-0.2c-0.3-0.1-0.6,0.2-0.2,0.4c0.4,0.2,0.7,0.3,1.1,0.3
	c0.3,0,0.7,0,1,0h0.5c1.1-0.2,2.2-0.1,3.3,0.2c0.1,0.1,0.3,0,0.3-0.1s0-0.3-0.1-0.3c-0.7-0.4-1.4-0.5-2.1-0.4
	c0.2-0.1,0.4-0.3,0.5-0.5c0.5-0.5,0.8-1,1.1-1.5c1.1,0,2.1-0.2,3.1-0.6c0.5,0.3,1,0.5,1.6,0.7c1.5,0.5,3.1,0.4,4.6-0.3l0,0
	c1.1,0.1,2.1-0.3,2.9-0.9c0.2-0.2,0.2-0.4-0.2-0.4c-1.5,0.3-3.2-0.4-5.2-2.2c1.8-0.9,3.1-2.6,3.5-4.6c-0.7-0.3-1.4-0.4-2.1-0.4
	c0.3-0.7,0.5-1.4,0.6-2.1c-2.8-0.6-5.8,0.3-7.9,2.3c-1.1-1-2.5-1.6-3.9-1.9l-0.2-0.6c-0.3-1.3-0.7-2.5-1.7-3.2c-0.9-0.6-2-0.8-3-0.5
	C6.5,3.6,5.9,4.1,5.6,4.8c-1,0-1.9,0.3-2.7,0.9C2.7,5.7,2.8,6,3,5.9z M7,12.2c-0.2,0.6-0.3,1.2-0.2,1.8c-0.8-1-0.9-2.3-0.4-3.5
	c0.5-1,1.4-1.8,2.5-2.1C9,9,9.2,9.6,9.4,10.2c-0.2,0-0.4,0.1-0.6,0.2C8,10.7,7.3,11.4,7,12.2L7,12.2z M7.2,13.1
	c0.2-1,0.8-1.9,1.8-2.2c0.2-0.1,0.4-0.1,0.6-0.2c0.3,0.6,0.6,1.2,1,1.8c-0.4,0-0.8,0.1-1.2,0.3c-1.1,0.5-1.5,1.7-1.1,2.8
	c0,0,0,0,0,0C7.5,15,7,14,7.2,13.1L7.2,13.1z M10.6,16.9c-0.3-0.1-0.7-0.3-1-0.5l0,0c-0.9-0.4-1.3-1.5-0.9-2.4
	c0.2-0.4,0.5-0.7,0.9-0.9C10,13,10.5,12.9,11,13c0.7,0.8,1.5,1.4,2.4,1.8c-0.2,0.7-0.3,1.4-0.4,2l-0.1,0.7
	C12.1,17.3,11.3,17.1,10.6,16.9L10.6,16.9z M12.2,20.2c0.7-0.6,0.9-1.4,1.3-3.4c0.1-0.6,0.2-1.2,0.4-1.9c0.6,0.2,1.2,0.4,1.8,0.5
	C15.1,17.3,14.1,19.7,12.2,20.2L12.2,20.2z M15.4,17.6c0.3-0.6,0.5-1.2,0.7-1.9c0.5,0.5,1,1,1.6,1.4C17,17.4,16.2,17.5,15.4,17.6
	L15.4,17.6z M19.9,17.7c-1.3-0.4-2.4-1.1-3.3-2.1c0.4,0,0.7,0,1.1,0c0.4,0,0.8-0.1,1.2-0.1c1.3,1.2,2.8,2,4.5,2.3
	C22.2,18.1,21.1,18,19.9,17.7L19.9,17.7z M26.1,17.1c-1.6,0.6-4.1,0.2-6.6-1.8c0.7-0.1,1.3-0.4,1.9-0.6C22.7,16,24.3,16.8,26.1,17.1
	z M17.1,9.2c1.8-1.3,4-1.8,6.2-1.5c-0.1,0.6-0.3,1.2-0.6,1.7c-1.1,0-2.2,0.3-3.1,0.8c-1,0.4-1.9,1.2-2.5,2.1c-0.7,0-1.4-0.2-2-0.5
	C15.5,10.8,16.2,9.9,17.1,9.2L17.1,9.2z M22.4,9.9c-1.1,1.5-2.9,2.4-4.7,2.4l0,0c0.6-0.7,1.3-1.3,2.1-1.6
	C20.6,10.3,21.5,10,22.4,9.9L22.4,9.9z M15.6,9.9c-0.4,0.5-0.8,1-1.1,1.6c-1.1-0.7-1.9-1.9-2.2-3.1l-0.1-0.2
	C13.5,8.5,14.7,9.1,15.6,9.9L15.6,9.9z M7.1,5.5c0.2,0.1,0.5,0,0.6-0.3c0.1-0.1,0-0.3,0-0.4c0.3,0,0.5,0.1,0.5,0.4c0,0,0,0,0,0.1
	c0,0.2-0.1,0.4-0.3,0.4C7.7,5.9,8,6.2,8.3,6c0.3-0.1,0.5-0.4,0.4-0.8c0-0.5-0.5-1-1-0.9c-0.2,0-0.5,0.1-0.7,0.2
	C7,4.6,6.9,4.7,6.9,4.9C6.6,4.8,6.4,4.8,6.1,4.7C6.4,4.3,6.8,4,7.3,3.9c0.9-0.3,1.9-0.1,2.6,0.4c0.9,0.6,1.2,1.7,1.5,2.9
	c0.1,0.4,0.2,0.9,0.4,1.3c0.7,2.6,3.1,4.4,5.9,4.3c2.2,0,4.2-1.1,5.3-2.9c0.6,0,1.3,0.1,1.8,0.3c-0.7,2.7-3.6,4.7-7.2,4.9
	c-2.6,0.2-5.1-0.9-6.7-3c-0.9-1.3-1.5-2.8-1.7-4.4C7.5,8,6.1,9.4,5.7,11.2c-0.1-0.8,0-1.6,0.2-2.3C6,8.5,6.1,8.1,6.3,7.7
	c0.2-0.4,0.2-0.8,0.2-1.1c-0.1-0.7-0.8-1-2.4-1C5.1,5.2,6.2,5.2,7.1,5.5L7.1,5.5z"/>
<path class="st0" d="M31.4,5.9c1.7-0.1,2.8,0.1,2.9,0.6c0,0.3-0.1,0.6-0.2,0.9c-0.2,0.4-0.3,0.8-0.4,1.3c-0.2,1-0.2,2,0,3
	c0.1,0.5,0.3,0.9,0.4,1.3l0,0.1l0,0c0.3,0.7,0.8,1.4,1.3,1.9l0.1,0.1l0,0c0.9,0.9,1.9,1.6,3,2c0.8,0.3,1.5,0.5,2.3,0.6
	c-0.3,1.5-0.7,2.2-1.8,2.3c-0.1,0-0.3,0-0.4,0l0,0c-0.3,0-0.6-0.1-0.9-0.2c-0.3-0.1-0.6,0.2-0.2,0.4c0.4,0.2,0.7,0.3,1.1,0.3
	c0.3,0,0.7,0,1,0h0.5c1.1-0.2,2.2-0.1,3.3,0.2c0.1,0.1,0.3,0,0.3-0.1s0-0.3-0.1-0.3c-0.7-0.4-1.4-0.5-2.1-0.4
	c0.2-0.1,0.4-0.3,0.5-0.5c0.5-0.5,0.8-1,1.1-1.5c1.1,0,2.1-0.2,3.1-0.6c0.5,0.3,1,0.5,1.6,0.7c1.5,0.5,3.1,0.4,4.6-0.3l0,0
	c1,0.1,2.1-0.3,2.9-0.9c0.2-0.2,0.2-0.4-0.2-0.4c-1.5,0.3-3.2-0.4-5.2-2.2c1.8-0.9,3.1-2.6,3.5-4.6c-0.7-0.3-1.4-0.4-2.2-0.5
	c0.3-0.7,0.5-1.4,0.6-2.1c-2.8-0.6-5.8,0.2-7.9,2.2c-1.1-1-2.5-1.6-3.9-1.9l-0.1-0.5c-0.3-1.3-0.7-2.5-1.7-3.2c-0.9-0.6-2-0.8-3-0.5
	c-0.7,0.2-1.3,0.7-1.6,1.4c-1,0-1.9,0.3-2.7,0.9C31,5.7,31.1,6,31.4,5.9z M35.3,12.2c-0.2,0.6-0.3,1.2-0.2,1.8
	c-0.8-1-0.9-2.3-0.4-3.5c0.5-1,1.4-1.8,2.5-2.1c0.1,0.6,0.3,1.2,0.5,1.8c-0.2,0-0.4,0.1-0.6,0.2C36.3,10.7,35.6,11.4,35.3,12.2z
	 M35.6,13.1c0.2-1,0.8-1.9,1.8-2.2c0.2-0.1,0.4-0.1,0.6-0.2c0.3,0.6,0.6,1.2,1,1.8c-0.4,0-0.8,0.1-1.2,0.3c-1.1,0.4-1.6,1.7-1.1,2.8
	c0,0,0,0,0,0.1C35.7,15,35.4,14,35.6,13.1L35.6,13.1z M38.9,16.9c-0.3-0.1-0.7-0.3-1-0.5l0,0c-0.9-0.4-1.3-1.5-0.9-2.4
	c0.2-0.4,0.5-0.7,0.9-0.9c0.4-0.2,0.9-0.3,1.4-0.3c0.7,0.8,1.5,1.4,2.4,1.8c-0.2,0.7-0.3,1.4-0.4,2l-0.1,0.7
	C40.4,17.3,39.7,17.1,38.9,16.9L38.9,16.9z M40.5,20.2c0.7-0.6,0.9-1.4,1.3-3.4c0.1-0.6,0.2-1.2,0.4-1.9c0.6,0.2,1.2,0.4,1.8,0.5
	C43.5,17.3,42.4,19.7,40.5,20.2L40.5,20.2z M43.7,17.6c0.3-0.6,0.5-1.2,0.7-1.9c0.5,0.5,1,1,1.6,1.4C45.3,17.4,44.5,17.5,43.7,17.6
	L43.7,17.6z M48.3,17.7c-1.3-0.4-2.4-1.1-3.3-2.1c0.4,0,0.7,0,1.1,0c0.4,0,0.8-0.1,1.2-0.1c1.3,1.2,2.8,2,4.5,2.3
	C50.6,18,49.4,18,48.3,17.7L48.3,17.7z M54.5,17.1c-1.6,0.6-4.2,0.2-6.6-1.8c0.7-0.1,1.3-0.4,1.9-0.6C51.1,16,52.7,16.8,54.5,17.1z
	 M45.5,9.2c1.8-1.3,4-1.8,6.2-1.5c-0.1,0.6-0.3,1.2-0.6,1.7c-1.1,0-2.2,0.3-3.2,0.8c-1,0.4-1.9,1.2-2.5,2.1c-0.7,0-1.4-0.2-2-0.5
	C43.9,10.8,44.6,9.9,45.5,9.2L45.5,9.2z M50.7,9.9c-1.1,1.5-2.9,2.4-4.7,2.4l0,0c0.6-0.7,1.3-1.3,2.1-1.6C49,10.3,49.8,10,50.7,9.9
	L50.7,9.9z M44,9.9c-0.4,0.5-0.8,1-1.1,1.6c-1.1-0.7-1.9-1.9-2.3-3.1l-0.1-0.2C41.8,8.5,43,9.1,44,9.9L44,9.9z M35.5,5.5
	c0.2,0.1,0.5,0,0.6-0.3c0.1-0.1,0-0.3,0-0.4c0.3,0,0.5,0.1,0.5,0.4c0,0,0,0,0,0.1c0,0.2-0.1,0.4-0.3,0.4c-0.3,0.2,0,0.5,0.3,0.3
	c0.3-0.1,0.5-0.4,0.4-0.8c0-0.5-0.5-1-1-0.9c-0.2,0-0.5,0.1-0.7,0.2c-0.1,0.1-0.2,0.2-0.2,0.3c-0.3-0.1-0.5-0.1-0.8-0.1
	c0.3-0.4,0.7-0.7,1.2-0.9c0.9-0.3,1.9-0.1,2.6,0.4c0.9,0.6,1.2,1.7,1.5,2.9c0.1,0.4,0.2,0.9,0.4,1.3c0.7,2.6,3.1,4.4,5.9,4.3
	c2.1,0,4.1-1.1,5.3-2.9c0.6,0,1.3,0.1,1.8,0.3C52.5,13,49.6,15,46,15.1c-2.6,0.2-5.1-1-6.7-3c-0.9-1.3-1.5-2.8-1.7-4.4
	c-1.8,0.3-3.2,1.7-3.6,3.4c-0.1-0.8,0-1.6,0.2-2.3c0.1-0.4,0.2-0.8,0.3-1.2c0.2-0.4,0.2-0.8,0.2-1.1c-0.1-0.7-0.8-1-2.4-1
	C33.4,5.2,34.5,5.2,35.5,5.5z"/>
<path class="st0" d="M0,0.2v28.7C0,45.7,10.4,61,28.6,71l0.1,0.1l0.1-0.1c18.2-10,28.6-25.4,28.6-42.2V0.2H0z M50.3,51L29,35.4
	c-0.1-0.1-0.2-0.1-0.3,0L7.2,51C4.8,47.2,3,43.1,1.9,38.7l26.9-19.6l26.9,19.6C54.6,43,52.7,47.2,50.3,51z M28.8,70.4
	c-9.2-5.1-16.4-11.6-21.2-19L28.8,36L50,51.5C45.2,58.8,38,65.3,28.8,70.4z M56.9,28.9c0,3.1-0.4,6.2-1.1,9.2L29,18.5
	c-0.1-0.1-0.2-0.1-0.3,0L1.7,38.1c-0.7-3-1.1-6.1-1.1-9.2V0.8h56.3V28.9z"/>
<path class="st0" d="M40.2,53.6c0-0.1-0.1-0.2-0.2-0.2c-0.1,0-0.2,0.1-0.2,0.2c-0.8,1.9-2.2,2.8-5.7,4.9c-1.8,1.1-3.7,2.2-4.4,4.2
	c-0.1-1-0.2-2.3-0.2-2.9c-0.1-0.9-0.2-1.9-0.3-3c0.3,0.4,0.8,0.6,1.2,0.6c0.5-0.1,0.9-0.9,1-1.3c0-0.2,0-0.4-0.1-0.6
	c0.1,0.2,0.3,0.3,0.5,0.5c0.5,0.3,1.1,0.4,1.6,0.2c0.4-0.5,0.5-1.1,0.3-1.6c-0.1-0.2-0.2-0.4-0.3-0.6c0.2,0.1,0.4,0.2,0.6,0.3
	c0.6,0.1,1.1-0.1,1.6-0.5c0.1-0.6,0-1.2-0.3-1.6c-0.2-0.2-0.3-0.3-0.5-0.4c0.2,0,0.4,0,0.7,0c0.4-0.1,1.2-0.6,1.2-1.1
	s-0.6-1.2-1-1.3c-0.2-0.1-0.4-0.1-0.7-0.1c0.2-0.1,0.4-0.1,0.6-0.3c0.3-0.2,0.8-1,0.7-1.5s-1-0.8-1.4-0.8c-0.2,0-0.4,0.1-0.7,0.1
	c0.2-0.1,0.3-0.3,0.4-0.5c0.3-0.5,0.3-1.1,0-1.6c-0.5-0.3-1.1-0.4-1.6-0.2c-0.2,0.1-0.4,0.2-0.5,0.4c0.1-0.2,0.2-0.4,0.2-0.6
	c0-0.4-0.2-1.3-0.7-1.5c-0.6-0.1-1.2,0.1-1.6,0.5c-0.1,0.2-0.2,0.4-0.3,0.6c0-0.2,0-0.4-0.1-0.7c-0.1-0.4-0.7-1.1-1.2-1.1
	s-1.1,0.7-1.2,1.1c-0.1,0.2-0.1,0.4-0.1,0.7c-0.1-0.2-0.2-0.4-0.3-0.6c-0.4-0.4-1-0.6-1.6-0.5c-0.5,0.2-0.7,1.1-0.7,1.5
	c0,0.2,0.1,0.4,0.2,0.6c-0.2-0.2-0.3-0.3-0.5-0.4c-0.5-0.2-1.1-0.2-1.6,0.2c-0.3,0.5-0.3,1.1,0,1.6c0.1,0.2,0.3,0.4,0.4,0.5
	c-0.2-0.1-0.4-0.1-0.6-0.1c-0.4,0-1.3,0.3-1.4,0.8s0.4,1.3,0.7,1.5c0.2,0.1,0.4,0.2,0.6,0.3c-0.2,0-0.4,0.1-0.7,0.1
	c-0.4,0.2-1,0.8-1,1.3s0.8,1,1.2,1.1c0.2,0,0.4,0,0.7,0c-0.2,0.1-0.4,0.2-0.5,0.4c-0.4,0.4-0.5,1-0.4,1.6c0.4,0.4,1,0.6,1.6,0.5
	c0.2-0.1,0.4-0.1,0.6-0.3c-0.1,0.2-0.2,0.4-0.3,0.6c-0.2,0.6,0,1.2,0.4,1.6c0.5,0.2,1.1,0.1,1.6-0.2c0.2-0.1,0.3-0.3,0.5-0.5
	c-0.1,0.2-0.1,0.4-0.1,0.7c0,0.4,0.5,1.2,1,1.3c0.5,0,0.9-0.2,1.2-0.6c-0.1,1-0.2,2.1-0.2,2.9c0,0.6-0.2,1.9-0.2,2.9
	c-0.7-1.9-2.6-3.1-4.4-4.2c-3.5-2.1-4.9-3-5.7-4.9c0-0.1-0.1-0.2-0.2-0.2c-0.1,0-0.2,0.1-0.2,0.2c-1,3.2,0.6,5.8,4.7,8.2l1.1,0.6
	c1.1,0.6,2.2,1.2,3.1,1.9c1.1,0.9,1.9,2.1,2.3,3.5c0,0.1,0.1,0.1,0.2,0.2l0,0c0.1,0,0.2-0.1,0.2-0.2c0.4-1.3,1.2-2.6,2.3-3.5
	c1-0.7,2-1.4,3-1.9l1.2-0.6C39.6,59.4,41.2,56.8,40.2,53.6z M30.3,56.9c-0.2,0-0.7-0.3-0.9-0.6C29,55,28.9,53.6,29,52.2
	c0.2,0,0.4-0.1,0.6-0.1c0.6,1.2,1.1,2.6,1.3,3.9C30.8,56.4,30.6,56.7,30.3,56.9z M28.8,51.8c-1.1,0-2-0.9-2-2s0.9-2,2-2s2,0.9,2,2
	C30.8,50.9,29.9,51.8,28.8,51.8C28.8,51.8,28.8,51.8,28.8,51.8L28.8,51.8z M33.1,55.7c-0.3,0.1-0.7,0-1-0.2
	c-0.9-1.1-1.6-2.3-2.1-3.6c0.2-0.1,0.4-0.2,0.5-0.4c1.1,0.9,2,1.9,2.7,3.1C33.3,55,33.3,55.4,33.1,55.7L33.1,55.7z M34.8,52.4
	c0.2,0.3,0.3,0.6,0.3,1c-0.3,0.2-0.6,0.3-1,0.3c-1.2-0.6-2.4-1.4-3.3-2.4c0.1-0.2,0.2-0.3,0.3-0.5C32.4,51.1,33.7,51.6,34.8,52.4z
	 M35.3,49.7c0.3,0.1,0.7,0.6,0.7,0.8s-0.5,0.6-0.8,0.7c-1.4-0.1-2.7-0.3-4-0.8c0-0.2,0.1-0.4,0.1-0.6c0,0,0,0,0-0.1
	C32.6,49.5,34,49.5,35.3,49.7z M34.8,47.1c0.4,0,0.7,0.2,1,0.5c0,0.4-0.2,0.7-0.5,0.9c-1.3,0.5-2.6,0.8-4,0.9c0-0.2-0.1-0.4-0.2-0.6
	C32.2,48,33.5,47.4,34.8,47.1L34.8,47.1z M33.1,44.9c0.3-0.1,0.7-0.1,1.1,0c0.1,0.3,0.1,0.7-0.1,1c-0.9,1-2,1.8-3.2,2.4l-0.1,0.1
	c-0.1-0.2-0.3-0.3-0.4-0.5C31.1,46.7,32.1,45.7,33.1,44.9z M30.8,43.5c0.3-0.3,0.6-0.4,1-0.4c0.2,0.3,0.4,0.6,0.4,1
	c-0.5,1.3-1.1,2.4-2,3.5L30,47.7c-0.2-0.1-0.4-0.2-0.6-0.3C29.7,46.1,30.1,44.7,30.8,43.5L30.8,43.5z M28,43.2
	c0.1-0.3,0.5-0.8,0.7-0.8s0.6,0.5,0.7,0.8c0.1,1.4-0.1,2.8-0.4,4.1c-0.2,0-0.4,0-0.6,0C28.1,46,27.9,44.6,28,43.2z M25.8,43.1
	c0.4,0,0.7,0.1,1,0.4c0.6,1.2,1.1,2.5,1.3,3.9c-0.2,0.1-0.4,0.1-0.6,0.2c-0.9-1.1-1.5-2.3-2-3.6C25.5,43.7,25.6,43.4,25.8,43.1z
	 M23.4,46c-0.2-0.3-0.2-0.7-0.1-1.1c0.3-0.1,0.7-0.1,1.1,0c1.1,0.8,2,1.9,2.8,3c-0.2,0.1-0.3,0.3-0.4,0.5
	C25.5,47.7,24.4,46.9,23.4,46z M22.3,48.5c-0.3-0.2-0.5-0.6-0.5-0.9c0.3-0.3,0.6-0.4,1-0.5c1.3,0.3,2.6,0.9,3.8,1.7
	c-0.1,0.2-0.2,0.4-0.2,0.6C25,49.3,23.6,49,22.3,48.5z M22.3,51.2c-0.3-0.1-0.8-0.5-0.8-0.7s0.4-0.7,0.7-0.8c1.4-0.2,2.7-0.2,4.1,0
	c0,0,0,0,0,0.1c0,0.2,0,0.4,0.1,0.6C25,50.9,23.7,51.1,22.3,51.2z M23.4,53.7c-0.4,0-0.7-0.1-1-0.3c0-0.4,0.1-0.7,0.3-1
	c1.1-0.8,2.4-1.3,3.7-1.7c0.1,0.2,0.2,0.4,0.3,0.5C25.8,52.3,24.7,53.1,23.4,53.7L23.4,53.7z M25.4,55.5c-0.3,0.2-0.7,0.2-1,0.2
	c-0.2-0.3-0.2-0.7-0.1-1c0.7-1.2,1.7-2.2,2.7-3.1c0.2,0.1,0.3,0.3,0.5,0.4C27.1,53.3,26.4,54.4,25.4,55.5L25.4,55.5z M28,56.3
	c-0.2,0.3-0.7,0.6-0.9,0.6s-0.5-0.6-0.6-0.9c0.2-1.4,0.7-2.7,1.4-3.9c0.2,0.1,0.4,0.1,0.6,0.1C28.7,53.6,28.5,55,28,56.3L28,56.3z
	 M35.2,61.3L34.1,62c-1.1,0.5-2.2,1.2-3.1,1.9c-1,0.8-1.8,1.9-2.2,3.1c-0.5-1.2-1.2-2.3-2.2-3.1c-1-0.8-2.1-1.4-3.2-2l-1-0.6
	c-3.6-2-5.1-4.3-4.6-6.9c1,1.7,2.7,2.8,5.6,4.5c1,0.6,2,1.3,2.9,2.1c0.9,0.8,1.5,1.9,1.8,3c0,0.1,0.1,0.2,0.2,0.2
	c0.1,0,0.2-0.1,0.2-0.2c0-1,0.3-6.1,0.4-7.2l0,0c0.1,1,0.4,6.1,0.4,7.2c0,0.1,0.1,0.2,0.2,0.2c0.1,0,0.2-0.1,0.2-0.2
	c0.3-1.1,0.9-2.2,1.8-3c0.9-0.8,1.9-1.5,3-2.1c2.9-1.7,4.6-2.8,5.6-4.5c0.5,2.6-1,4.9-4.6,6.9L35.2,61.3z"/>
<path class="st0" d="M25.7,33c0,0-0.1,0-0.2,0c-0.1-0.1-0.1-0.2-0.1-0.3l1.1-3.5l-3-2.2c-0.1-0.1-0.1-0.2,0-0.3
	c0-0.1,0.1-0.1,0.2-0.1h3.7l1.2-3.5c0-0.1,0.1-0.2,0.2-0.2l0,0c0.1,0,0.2,0.1,0.2,0.2l1.1,3.5h3.7c0.1,0,0.2,0.1,0.3,0.2
	c0,0.1,0,0.2-0.1,0.2l-3,2.2l1.1,3.5c0,0.1,0,0.3-0.2,0.3c-0.1,0-0.2,0-0.2,0l-3-2.2L25.7,33C25.7,33,25.7,33,25.7,33z M24.5,27.1
	l2.5,1.8c0.1,0.1,0.1,0.2,0.1,0.3l-0.9,2.9l2.5-1.8c0.1-0.1,0.2-0.1,0.3,0l2.5,1.8l-1-2.9c0-0.1,0-0.2,0.1-0.3l2.5-1.8H30
	c-0.1,0-0.2-0.1-0.2-0.2l-1-2.9l-1,2.9c0,0.1-0.1,0.2-0.2,0.2H24.5z"/>
<path class="st0" d="M17.4,42.1c0,0-0.1,0-0.1,0l-3-2.2l-2.9,2.2c-0.1,0.1-0.3,0.1-0.4,0c-0.1-0.1-0.1-0.2,0-0.2l1.1-3.5l-3-2.2
	C8.9,36.1,8.9,36,9,35.8c0-0.1,0.1-0.1,0.2-0.1h3.7l1.1-3.5c0.1-0.1,0.2-0.2,0.3-0.1c0.1,0,0.1,0.1,0.1,0.1l1.1,3.5h3.7
	c0.1,0,0.2,0.1,0.2,0.2c0,0.1,0,0.2-0.1,0.2l-3,2.2l1.1,3.5C17.6,42,17.6,42.1,17.4,42.1C17.4,42.2,17.4,42.2,17.4,42.1L17.4,42.1z
	 M10,36.2l2.5,1.8c0.1,0.1,0.1,0.2,0.1,0.3l-1,2.9l2.5-1.8c0.1-0.1,0.2-0.1,0.3,0l2.5,1.8l-1-2.9c0-0.1,0-0.2,0.1-0.3l2.5-1.8h-3.1
	c-0.1,0-0.2-0.1-0.2-0.2l-0.9-2.9l-1,3c0,0.1-0.1,0.2-0.2,0.2L10,36.2z"/>
<path class="st0" d="M40.2,42.1c-0.1,0-0.3-0.1-0.3-0.2c0,0,0-0.1,0-0.1l1.1-3.5l-3-2.2c-0.1-0.1-0.1-0.2-0.1-0.3
	c0-0.1,0.1-0.1,0.2-0.1h3.7l1.1-3.5c0.1-0.1,0.1-0.1,0.2-0.1l0,0c0.1,0,0.2,0.1,0.2,0.2l1.1,3.5h3.7c0.1,0,0.2,0.1,0.3,0.2
	c0,0.1,0,0.2-0.1,0.2l-3,2.2l1.1,3.5c0,0.1,0,0.2-0.1,0.3c-0.1,0-0.2,0-0.2,0l-3-2.2L40.2,42.1C40.3,42.1,40.3,42.1,40.2,42.1z
	 M43.3,39.4c0,0,0.1,0,0.2,0l2.5,1.8l-1-2.9c0-0.1,0-0.2,0.1-0.3l2.5-1.8h-3c-0.1,0-0.2,0-0.2-0.1l-1-3l-1,2.9
	c0,0.1-0.1,0.2-0.2,0.2h-3l2.5,1.8c0.1,0.1,0.1,0.2,0.1,0.3l-1,2.9L43.3,39.4C43.2,39.4,43.3,39.4,43.3,39.4z"/>
</svg>
