<svg id="Layer_1" data-name="Layer 1" xmlns="http://www.w3.org/2000/svg" viewBox="0 0 234.3 85.2"><defs><style>.cls-1{fill:#828282;}</style></defs><title>Artboard 1</title><path class="cls-1" d="M41,31.5a.55.55,0,0,0-.5-.3H36.3l-1.3-4a.42.42,0,0,0-.6-.3.32.32,0,0,0-.3.3l-1.3,4H28.5a.47.47,0,0,0-.5.5.52.52,0,0,0,.2.4l3.5,2.5-1.3,4.1a.45.45,0,0,0,.3.6c.2.1.3,0,.5-.1l3.4-2.5,3.5,2.5a.64.64,0,0,0,.6,0c.2-.1.2-.3.2-.5l-1.3-4.1L41,32.1c0-.2.1-.4,0-.6Zm-6.2,4.2a.64.64,0,0,0-.6,0l-2.5,1.8,1-3a.37.37,0,0,0-.2-.5L30,32.1h3.1a.55.55,0,0,0,.5-.3l1-3,1,3a.55.55,0,0,0,.5.3h3.1L36.6,34c-.2.1-.2.3-.2.5l1,3Z"/><path class="cls-1" d="M23.6,43.2a.55.55,0,0,0-.5-.3H18.8l-1.3-4a.42.42,0,0,0-.6-.3.32.32,0,0,0-.3.3l-1.3,4H11a.47.47,0,0,0-.5.5.76.76,0,0,0,.2.4l3.5,2.5-1.3,4.1a.45.45,0,0,0,.3.6c.2.1.3,0,.5-.1l3.5-2.5,3.5,2.5a.64.64,0,0,0,.6,0c.2-.1.2-.3.2-.5l-1.3-4,3.4-2.6a1.15,1.15,0,0,1,0-.6Zm-6.3,4.1a.64.64,0,0,0-.6,0l-2.5,1.8,1-3c0-.2,0-.4-.2-.5l-2.5-1.8h3.1a.55.55,0,0,0,.5-.3l1-3,1,3a.55.55,0,0,0,.5.3h3.1l-2.6,1.8c-.2.1-.2.3-.2.5l1,3Z"/><path class="cls-1" d="M45.8,43.7l3.4,2.5-1.3,4.1a.37.37,0,0,0,.2.5.64.64,0,0,0,.6,0l3.4-2.5,3.4,2.5a.48.48,0,0,0,.7,0,.75.75,0,0,0,.1-.5L55,46.2l3.4-2.5a.49.49,0,0,0,.1-.7.52.52,0,0,0-.4-.2H53.8l-1.3-4a.42.42,0,0,0-.6-.3.32.32,0,0,0-.3.3l-1.3,4.1H46a.47.47,0,0,0-.5.5c.1.1.1.2.3.3Zm3.5,5.5,1-3a.37.37,0,0,0-.2-.5l-2.5-1.8h3.1a.55.55,0,0,0,.5-.3l1-3,1,3a.55.55,0,0,0,.5.3h3.1l-2.6,1.9c-.2,0-.3.2-.2.4l1,3-2.5-1.8a.64.64,0,0,0-.6,0Z"/><path class="cls-1" d="M94.1,60.1a12.23,12.23,0,0,1-2.4,1,7.46,7.46,0,0,1-2.6.4,9.29,9.29,0,0,1-2.9-.5,6,6,0,0,1-3.6-3.6,8.68,8.68,0,0,1-.5-2.8,6.92,6.92,0,0,1,.5-2.8,7.1,7.1,0,0,1,1.3-2.2A8,8,0,0,1,86,48.1a7.1,7.1,0,0,1,2.9-.5,11.71,11.71,0,0,1,2.6.4,10.14,10.14,0,0,1,2.4,1l.8-1.6a12.81,12.81,0,0,0-2.4-1.1,10.27,10.27,0,0,0-6.7.2,7.5,7.5,0,0,0-2.8,1.8,9.23,9.23,0,0,0-1.9,2.8,8.29,8.29,0,0,0-.7,3.4,8.42,8.42,0,0,0,.7,3.5,8.69,8.69,0,0,0,1.9,2.8,8.39,8.39,0,0,0,2.8,1.8,8.81,8.81,0,0,0,3.6.6,10.59,10.59,0,0,0,3.1-.5,25.57,25.57,0,0,0,2.4-1.1l-.6-1.5Zm16.6-2.7a7.55,7.55,0,0,1-1.3,2.3,6.29,6.29,0,0,1-4.6,2,5.72,5.72,0,0,1-4.6-2,7.1,7.1,0,0,1-1.3-2.2,8.94,8.94,0,0,1,0-5.6,6.11,6.11,0,0,1,1.3-2.2,7.49,7.49,0,0,1,2-1.5,4.68,4.68,0,0,1,2.6-.5,6.13,6.13,0,0,1,4.6,2,7.1,7.1,0,0,1,1.3,2.2,7.46,7.46,0,0,1,0,5.5m1.9-6.3a7.12,7.12,0,0,0-1.8-2.7,8,8,0,0,0-2.7-1.8,8.76,8.76,0,0,0-3.2-.7,7.11,7.11,0,0,0-3.2.7A8,8,0,0,0,99,48.4a8.6,8.6,0,0,0-2.6,6.3A9.28,9.28,0,0,0,98.9,61a8,8,0,0,0,2.7,1.8,8.66,8.66,0,0,0,3.2.6,8.92,8.92,0,0,0,6-2.4,9.23,9.23,0,0,0,1.9-2.8,8.42,8.42,0,0,0,.7-3.5,19,19,0,0,0-.8-3.6M126.8,63V61.4h-8V46.2H117V63Zm12.7,0V61.4h-8V46.2h-1.8V63Zm12.7,0V61.4h-8V55.3h7.2V53.7h-7.2V47.9h8V46.2h-9.9V63Zm11.6-8.3v1.7h4.5v4.1a7.22,7.22,0,0,1-2,.9,8.52,8.52,0,0,1-2.3.3,9.18,9.18,0,0,1-2.8-.5,6.78,6.78,0,0,1-2.3-1.4,8.55,8.55,0,0,1-1.5-2.2,6.71,6.71,0,0,1-.6-2.8,8.57,8.57,0,0,1,.5-2.7,6.56,6.56,0,0,1,3.4-3.9,7.17,7.17,0,0,1,2.9-.6,9.18,9.18,0,0,1,2.8.5,12.64,12.64,0,0,1,2.6,1.3l1-1.4a6.38,6.38,0,0,0-1.4-.8,4.23,4.23,0,0,0-1.4-.6,9.36,9.36,0,0,0-1.6-.4,12.1,12.1,0,0,0-1.9-.1,8.66,8.66,0,0,0-3.2.6,8.39,8.39,0,0,0-2.8,1.8,10.52,10.52,0,0,0-2,2.7,8.63,8.63,0,0,0-.8,3.6,7.58,7.58,0,0,0,.8,3.6,9,9,0,0,0,2,2.7,7.89,7.89,0,0,0,2.9,1.8,9.74,9.74,0,0,0,3.4.6,13.32,13.32,0,0,0,3.4-.5,8.48,8.48,0,0,0,2.8-1.5V54.8h-6.4ZM184.1,63V61.4h-8V55.3h7.2V53.7h-7.2V47.9h8V46.2h-9.9V63Z"/><path class="cls-1" d="M92.5,40.1V38.4h-8V23.3H82.6V40.1Zm12.8-6.2H99.1l3.1-7.2Zm4.7,6.2L102.3,23H102L94.4,40.1h1.9l2-4.7h7.5l2,4.7Zm14.3-5.8a7.55,7.55,0,0,1-1.3,2.3,5.13,5.13,0,0,1-2.3,1.5,8.66,8.66,0,0,1-3.2.6h-1.7a5,5,0,0,1-1.2-.2V24.9a4.87,4.87,0,0,1,1.2-.1h1.5a11.27,11.27,0,0,1,3.2.5,6.78,6.78,0,0,1,2.3,1.4,5.55,5.55,0,0,1,1.4,2.2,8.57,8.57,0,0,1,.5,2.7,12.59,12.59,0,0,1-.4,2.7m1.8-5.9a8.39,8.39,0,0,0-1.8-2.8,9.53,9.53,0,0,0-3-1.9,12,12,0,0,0-4.2-.7,18.48,18.48,0,0,0-2.4.1c-.8.1-1.4.1-2,.2V39.9c.7.1,1.4.1,2.1.2a19.27,19.27,0,0,0,2.4.1,12.34,12.34,0,0,0,4.2-.7,9.53,9.53,0,0,0,3-1.9,7.5,7.5,0,0,0,1.8-2.8,9.19,9.19,0,0,0,.6-3.3,6.7,6.7,0,0,0-.7-3.1m6.2-5.1h-1.8V40.1h1.8V23.3Zm14.3,16.8V38.4h-8V32.3h7.2V30.6h-7.2V24.8h8V23.2h-9.9V40h9.9ZM159.2,34a3.46,3.46,0,0,0-.7-1.2,7.55,7.55,0,0,0-1.4-1.1,15.05,15.05,0,0,0-2.2-1.1,6.36,6.36,0,0,1-2.2-1.4,2.36,2.36,0,0,1-.7-1.6,4.25,4.25,0,0,1,.2-1.1,2.36,2.36,0,0,1,.6-.9,2.07,2.07,0,0,1,1-.6,3.18,3.18,0,0,1,1.4-.2,4.15,4.15,0,0,1,1.6.3,3.92,3.92,0,0,1,1.4.8l.8-1.6a5.31,5.31,0,0,0-1.7-.8,6.45,6.45,0,0,0-2-.3,5.22,5.22,0,0,0-2.1.4,4.35,4.35,0,0,0-1.6,1,4,4,0,0,0-1,1.5,5.26,5.26,0,0,0-.4,1.8,6.75,6.75,0,0,0,.2,1.4,7.46,7.46,0,0,0,.7,1.2,5.73,5.73,0,0,0,1.1,1.1,11.4,11.4,0,0,0,1.9,1,14,14,0,0,1,1.7.9,3.92,3.92,0,0,1,1,.8,2.62,2.62,0,0,1,.5.9,3.4,3.4,0,0,1,.1,1,4.25,4.25,0,0,1-.2,1.1,1.46,1.46,0,0,1-.6.9,3.59,3.59,0,0,1-1,.7,3.4,3.4,0,0,1-1.4.2,4.48,4.48,0,0,1-2-.4,7.81,7.81,0,0,1-2-1.1l-.9,1.6a10.08,10.08,0,0,0,2.3,1.2,7.46,7.46,0,0,0,2.6.4,4.48,4.48,0,0,0,2-.4,4.35,4.35,0,0,0,1.6-1,5.27,5.27,0,0,0,1.1-1.5,4.33,4.33,0,0,0,.4-1.9,4,4,0,0,0-.1-2M164,23.4a1.09,1.09,0,0,0-.9-.4,1.11,1.11,0,0,0-1.1,1.1,1.14,1.14,0,0,0,.3.8,1.27,1.27,0,0,0,.9.4,3.7,3.7,0,0,1-.5,1.1,10.59,10.59,0,0,1-1,1.2l.2.4a4.44,4.44,0,0,0,1.1-.8,5.5,5.5,0,0,0,.7-.9,3.55,3.55,0,0,0,.4-.9,2.77,2.77,0,0,0,.1-.9,1.31,1.31,0,0,0-.2-1.1"/><path class="cls-1" d="M94.1,14.3a12.23,12.23,0,0,1-2.4,1,7.46,7.46,0,0,1-2.6.4,6.63,6.63,0,0,1-2.8-.5,6.26,6.26,0,0,1-3.6-3.7,8.68,8.68,0,0,1-.5-2.8,6.92,6.92,0,0,1,.5-2.8A6.11,6.11,0,0,1,84,3.7a8,8,0,0,1,2.1-1.5A7.1,7.1,0,0,1,89,1.7a7.83,7.83,0,0,1,2.6.4,10.14,10.14,0,0,1,2.4,1l.8-1.6A11.18,11.18,0,0,0,92.3.4a9.66,9.66,0,0,0-6.7.2,7.5,7.5,0,0,0-2.8,1.8,9.23,9.23,0,0,0-1.9,2.8,8.29,8.29,0,0,0-.7,3.4,8.42,8.42,0,0,0,.7,3.5,8.69,8.69,0,0,0,1.9,2.8,8.39,8.39,0,0,0,2.8,1.8,8.81,8.81,0,0,0,3.6.6,10.59,10.59,0,0,0,3.1-.5,13.35,13.35,0,0,0,2.4-1.1l-.6-1.4Zm16.3,2.8V.3h-1.8V7.8h-9V.3H97.8V17.1h1.8V9.4h9v7.7Zm14.4,0V15.4h-8v-6H124V7.8h-7.2V2h8V.3h-9.9V17.1Zm13.3,0V15.4h-8V.3h-1.9V17.1ZM150.6,2V.3H137.5V2h5.6V17.2h1.8V2Zm12.8,15.1V15.4h-8v-6h7.2V7.8h-7.2V2h8V.3h-9.9V17.1Zm16.6.3V.3h-1.9V12.8L167.3,0l-.3.1v17h1.8V4.4l11,13.1.2-.1Zm17.1-.3V.3h-1.8V7.8h-9V.3h-1.8V17.1h1.8V9.4h9v7.7Zm13.5-6.2h-6.2l3.1-7.2Zm4.7,6.2L207.7,0h-.3l-7.6,17.1h1.9l2-4.7h7.6l2,4.7Zm19,0L233.7,0h-.4l-7.1,12.6L218.8,0h-.3l-.6,17.1h1.9L220,5.2l6,10.2h.2l6-10.2.2,11.9Z"/><path class="cls-1" d="M32.5,20a.37.37,0,0,0-.5-.2c-1.6.3-3.2-.3-5.2-1.9A8.93,8.93,0,0,0,31,12.4c.1-.2-.1-.5-.3-.6a10.89,10.89,0,0,0-2.6-.5,7.28,7.28,0,0,0,.7-2.4c0-.2-.1-.5-.3-.5a11.66,11.66,0,0,0-10.3,2.5,9.71,9.71,0,0,0-3.6-1.6,2.35,2.35,0,0,1-.2-.8c-.4-1.6-.8-3.1-2.2-4a4.44,4.44,0,0,0-3.9-.6,3.39,3.39,0,0,0-2,1.7A5.24,5.24,0,0,0,3,6.7c-.2.1-.2.4-.1.6a.55.55,0,0,0,.5.3c2-.1,3.2.3,3.2.8a3.55,3.55,0,0,1-.2,1,8.09,8.09,0,0,0,.3,6.8h0A10.38,10.38,0,0,0,12.2,21a21.72,21.72,0,0,0,2.4.7c-.2,1.8-.5,2.4-1.6,2.5a2.51,2.51,0,0,1-1.5-.2.45.45,0,0,0-.4.8,3.08,3.08,0,0,0,1.3.3h2a8.64,8.64,0,0,1,3.9.3.51.51,0,1,0,.5-.9h0a6.53,6.53,0,0,0-2-.5l.2-.2a8.47,8.47,0,0,0,1.4-1.9,12.85,12.85,0,0,0,3.4-.7,10.94,10.94,0,0,0,5,1.3,8.23,8.23,0,0,0,5.8-2,.47.47,0,0,0,.1-.6ZM27.6,9.2a5,5,0,0,1-.8,2,8.29,8.29,0,0,0-4.1.7,5.87,5.87,0,0,0-3,2.6,5.66,5.66,0,0,1-2.5-.8c1.7-3.8,7.1-5.3,10.4-4.5Zm-1.4,3A7.28,7.28,0,0,1,21,14.6h-.1a5.78,5.78,0,0,1,2.3-1.8,6.45,6.45,0,0,1,3-.6Zm-9.7.8a5.93,5.93,0,0,1-1.7-2.7,12.27,12.27,0,0,1,2.6,1.2,6,6,0,0,0-.9,1.5ZM4.5,6.8a6.35,6.35,0,0,1,4.3.3h0c.7.4,1,.4,1.3.2a.84.84,0,0,0,.4-.7.79.79,0,0,0-.8-.8c-.3.1-.6.2-.7.4a3.37,3.37,0,0,0-1.7-.5,2.15,2.15,0,0,1,1.2-.9,3.58,3.58,0,0,1,3,.5c1,.7,1.4,1.9,1.8,3.4a14.24,14.24,0,0,0,.5,1.6,6.91,6.91,0,0,0,7.1,5.2H21a7.74,7.74,0,0,0,6.4-3.3,20,20,0,0,1,2.4.4c-1,3.4-4.5,5.8-8.7,5.9-5.8.2-9.9-2.8-11-8,0-.1-.1-.3-.2-.3a.3.3,0,0,0-.4,0,4.61,4.61,0,0,0-2.8,2.1,7.51,7.51,0,0,1,.5-2.6,3.19,3.19,0,0,0,.3-1.4c0-.8-1.2-1.5-3-1.5Zm3,8.9a3.87,3.87,0,0,1-.1-2.8,3.72,3.72,0,0,1,1.9-1.8,10.19,10.19,0,0,0,5.8,7.1c-.2.9-.3,1.7-.4,2.4a9,9,0,0,1-2.2-.6,8.78,8.78,0,0,1-5-4.3Zm8.7,7.4a4.13,4.13,0,0,1-1.1.7,11,11,0,0,0,.6-2.6c.1-.7.2-1.6.4-2.5a16,16,0,0,0,2.1.5,9.07,9.07,0,0,1-2,3.9Zm5.7-2.8a.3.3,0,0,0-.4,0,13.65,13.65,0,0,1-2.9.7,7.49,7.49,0,0,0,.5-1.6,8.08,8.08,0,0,0,1.6.1h.5a10.39,10.39,0,0,0,4.6-1.1,9.31,9.31,0,0,0,4.6,2.4,9.15,9.15,0,0,1-8.5-.5Z"/><path class="cls-1" d="M66.2,20a.37.37,0,0,0-.5-.2c-1.6.3-3.2-.3-5.2-1.9a8.93,8.93,0,0,0,4.2-5.5c.1-.2-.1-.5-.3-.6a10.89,10.89,0,0,0-2.6-.5,7.28,7.28,0,0,0,.7-2.4c0-.2-.1-.5-.3-.5a11.66,11.66,0,0,0-10.3,2.5,9.71,9.71,0,0,0-3.6-1.6,1.33,1.33,0,0,1-.3-.8c-.4-1.6-.8-3.1-2.2-4A4.28,4.28,0,0,0,42,3.9a3.39,3.39,0,0,0-2,1.7,5.39,5.39,0,0,0-3.2,1.1c-.2.1-.2.4-.1.6a.55.55,0,0,0,.5.3c2-.1,3.2.3,3.2.8a3.55,3.55,0,0,1-.2,1,8.14,8.14,0,0,0-.4,4.9,11.76,11.76,0,0,0,.7,2h0A10.38,10.38,0,0,0,46,21.1a10.15,10.15,0,0,0,2.5.6c-.3,1.8-.5,2.4-1.6,2.5a3.89,3.89,0,0,1-1.5-.2.51.51,0,1,0-.5.9h0a2.77,2.77,0,0,0,1.3.3h1.9a8.64,8.64,0,0,1,3.9.3.51.51,0,0,0,.5-.9h0a6.53,6.53,0,0,0-2-.5l.2-.2A8.47,8.47,0,0,0,52.1,22a9.74,9.74,0,0,0,3.4-.6,10.94,10.94,0,0,0,5,1.3,8.23,8.23,0,0,0,5.8-2,1.48,1.48,0,0,0-.1-.7ZM61.4,9.2a5,5,0,0,1-.8,2,8.29,8.29,0,0,0-4.1.7,6.09,6.09,0,0,0-3.1,2.6,5.66,5.66,0,0,1-2.5-.8c1.7-3.8,7.2-5.3,10.5-4.5Zm-1.4,3a7.28,7.28,0,0,1-5.2,2.4h-.1A5.78,5.78,0,0,1,57,12.8a6.45,6.45,0,0,1,3-.6Zm-9.8.8a5.93,5.93,0,0,1-1.7-2.7,12.27,12.27,0,0,1,2.6,1.2Zm-12-6.2a6.35,6.35,0,0,1,4.3.3h0c.7.4,1,.4,1.3.2.2,0,.4-.3.4-.6a.79.79,0,0,0-.8-.8.71.71,0,0,0-.6.3,4.8,4.8,0,0,0-1.7-.5,2,2,0,0,1,1.2-.8,3.58,3.58,0,0,1,3,.5c1,.7,1.4,1.9,1.8,3.4a14.24,14.24,0,0,0,.5,1.6,6.91,6.91,0,0,0,7.1,5.2h.2a7.74,7.74,0,0,0,6.4-3.3,20,20,0,0,1,2.4.4c-1,3.4-4.5,5.8-8.7,5.9-5.8.2-9.9-2.8-11-8,0-.1-.1-.3-.2-.3a.3.3,0,0,0-.4,0,4.61,4.61,0,0,0-2.8,2.1,7.51,7.51,0,0,1,.5-2.6,3.19,3.19,0,0,0,.3-1.4c-.2-1-1.3-1.6-3.2-1.6Zm3.1,8.9a3.42,3.42,0,0,1-.1-2.8,3.36,3.36,0,0,1,1.9-1.8,10.19,10.19,0,0,0,5.8,7.1c-.2.9-.3,1.7-.4,2.4a9,9,0,0,1-2.2-.6,8.53,8.53,0,0,1-5-4.3Zm8.6,7.4a4.13,4.13,0,0,1-1.1.7,11,11,0,0,0,.6-2.6c.1-.7.2-1.6.4-2.5a16,16,0,0,0,2.1.5,8.1,8.1,0,0,1-2,3.9Zm5.8-2.8a.3.3,0,0,0-.4,0,13.65,13.65,0,0,1-2.9.7,7.49,7.49,0,0,0,.5-1.6,8.08,8.08,0,0,0,1.6.1H55a10.39,10.39,0,0,0,4.6-1.1,9.31,9.31,0,0,0,4.6,2.4,9.15,9.15,0,0,1-8.5-.5Z"/><path class="cls-1" d="M0,.2V34.6C0,54.6,12.5,73,34.3,85l.3.2.3-.2C56.7,73,69.2,54.6,69.2,34.6V.2ZM2.7,46.4,34.6,23.2,66.5,46.5a49.49,49.49,0,0,1-6.3,14.3L34.6,42,9,60.7A50.71,50.71,0,0,1,2.7,46.4ZM34.6,83.8c-10.8-6-19.3-13.6-25-22.2l25-18.2,25,18.2c-5.7,8.6-14.2,16.2-25,22.2ZM68,34.7a47,47,0,0,1-1.2,10.5L34.6,21.7,2.4,45.1A45.47,45.47,0,0,1,1.2,34.7V1.4H68Z"/><path class="cls-1" d="M48.6,64.3c-.1-.2-.2-.3-.4-.3h0a.55.55,0,0,0-.5.3c-.9,2.2-2.7,3.3-6.8,5.8a16.1,16.1,0,0,0-3,2.1,10,10,0,0,0-2,2.1c-.1-.7-.2-3.8-.4-5.6a1.66,1.66,0,0,0,1.2.5h.2a2,2,0,0,0,1.2-1.8,4.1,4.1,0,0,0-.1-1.1,2.7,2.7,0,0,0,.8.7,2.66,2.66,0,0,0,1.2.3,1.69,1.69,0,0,0,1-.3,2.16,2.16,0,0,0,.3-2.2l-.6-.9,1.1.3c.4,0,1.6-.3,1.9-1a2.17,2.17,0,0,0-.7-2,3.13,3.13,0,0,0-1-.5,2.28,2.28,0,0,0,1.1-.3c.4-.2,1.3-1,1.2-1.8s-1.2-1.3-1.6-1.4a2.05,2.05,0,0,0-1.1,0,2.7,2.7,0,0,0,.8-.7,2.23,2.23,0,0,0,.2-2.1,2.36,2.36,0,0,0-1.6-.7.75.75,0,0,0-.5.1,3.13,3.13,0,0,0-1,.5,3,3,0,0,0,.4-1,2.17,2.17,0,0,0-.8-2,2.34,2.34,0,0,0-2.1.5,2.36,2.36,0,0,0-.6.9,4.1,4.1,0,0,0-.1-1.1c-.1-.4-.8-1.4-1.6-1.4a2,2,0,0,0-1.6,1.4,4.1,4.1,0,0,0-.1,1.1l-.6-.9a2.34,2.34,0,0,0-2.1-.5,2.17,2.17,0,0,0-.8,2,3,3,0,0,0,.4,1,3.13,3.13,0,0,0-1-.5,4.33,4.33,0,0,1-.5-.1,2,2,0,0,0-1.5.6,2.23,2.23,0,0,0,.2,2.1,2.7,2.7,0,0,0,.8.7,2.05,2.05,0,0,0-1.1,0c-.4.1-1.5.7-1.6,1.4s.8,1.6,1.2,1.8a2.28,2.28,0,0,0,1.1.3,3.13,3.13,0,0,0-1,.5,2,2,0,0,0-.7,2,2.17,2.17,0,0,0,1.9,1h0a2.28,2.28,0,0,0,1.1-.3,2.36,2.36,0,0,0-.6.9,2,2,0,0,0,.3,2.1,1.69,1.69,0,0,0,1,.3,2.66,2.66,0,0,0,1.2-.3,2.7,2.7,0,0,0,.8-.7,4.1,4.1,0,0,0-.1,1.1c0,.4.5,1.6,1.2,1.8a1.79,1.79,0,0,0,1.4-.4c-.2,1.9-.3,5-.4,5.6a8,8,0,0,0-2-2.1,16.1,16.1,0,0,0-3-2.1c-4.1-2.5-5.8-3.6-6.8-5.8a.55.55,0,0,0-.5-.3h0a.45.45,0,0,0-.4.3c-1.2,3.9.7,7.2,5.7,10l1.1.6.2.1a29.55,29.55,0,0,1,3.8,2.3,9.71,9.71,0,0,1,2.8,4.1c.1.2.2.3.4.3h0c.2,0,.3-.1.4-.3a8.89,8.89,0,0,1,2.8-4.1,24,24,0,0,1,3.8-2.3l.2-.1,1.1-.6c4.6-2.8,6.5-6,5.4-9.9ZM36.7,68.2h0a1.56,1.56,0,0,1-.8-.6,17.73,17.73,0,0,1-.8-4l-.1-.8a2.35,2.35,0,0,0,.8-.2v.1c.8,2,1.5,3.8,1.4,4.6a2,2,0,0,1-.5.9Zm3.7-2h0c-.1,0-.2.1-.3.1a.84.84,0,0,1-.7-.2,13.13,13.13,0,0,1-2.5-3.2l-.5-.7c.2-.2.4-.3.6-.5h0c1.7,1.5,3.2,2.8,3.4,3.4a2.05,2.05,0,0,1,0,1.1Zm1.9-4.3a2.62,2.62,0,0,1,.5.9h0a1.8,1.8,0,0,1-.9.4h0a17.25,17.25,0,0,1-3.7-1.6l-.8-.4c.1-.2.2-.5.3-.7h.1c2.1.4,4,.9,4.5,1.4Zm.2-3.8a1.56,1.56,0,0,1,.8.6h0a1.78,1.78,0,0,1-.7.8,13.94,13.94,0,0,1-4.1.3h-.8a2.2,2.2,0,0,0-.1-.8h.1a22.79,22.79,0,0,1,4.8-.9Zm-1.7-3.4h.3a1.2,1.2,0,0,1,.8.2h0a1.8,1.8,0,0,1-.2,1A12.54,12.54,0,0,1,38.2,58l-.7.4a3,3,0,0,0-.5-.7l.1-.1A15.34,15.34,0,0,1,40.8,54.7Zm-5,2c.8-2,1.4-3.8,1.9-4.3a3.55,3.55,0,0,1,.9-.4h.1a1.69,1.69,0,0,1,.3,1,14.15,14.15,0,0,1-2.1,3.5l-.5.7c-.2-.1-.5-.3-.7-.4l.1-.1Zm-1.9-4.9c.1-.2.5-.7.7-.7h0c.2,0,.6.5.7.8a18.8,18.8,0,0,1-.2,4.1h0l-.1.7h-.8a18.73,18.73,0,0,1-.3-4.9Zm.7,5.9a2.1,2.1,0,1,1,0,4.2,2.05,2.05,0,0,1-2.1-2.1A2.11,2.11,0,0,1,34.6,57.7Zm-4-5.6h.1a3.18,3.18,0,0,1,.9.3,17.64,17.64,0,0,1,1.7,3.7l.3.8a2.51,2.51,0,0,0-.7.4v-.1c-1.3-1.8-2.4-3.4-2.5-4.1a1.23,1.23,0,0,1,.2-1Zm-2.9,3.8a1.23,1.23,0,0,1-.2-1h0a1.88,1.88,0,0,1,.8-.2h.3a13.13,13.13,0,0,1,3.2,2.5l.6.5a1.61,1.61,0,0,0-.4.7h-.1c-2.1-1-3.8-1.9-4.2-2.5Zm-1,3.6a1.85,1.85,0,0,1-.7-.8h0a1.56,1.56,0,0,1,.8-.6h.3a25.34,25.34,0,0,1,3.8.7l.8.2a2,2,0,0,0-.1.8H30.3a11,11,0,0,1-3.6-.3Zm.8,3.7h0a1.49,1.49,0,0,1-.9-.4h0a1.19,1.19,0,0,1,.5-.9,17.06,17.06,0,0,1,3.8-1.3l.8-.2a4.88,4.88,0,0,0,.3.7l-.2.1a15.22,15.22,0,0,1-4.3,2Zm2.4,3a1.85,1.85,0,0,1-.7.2h-.3a1.7,1.7,0,0,1,0-1,14.85,14.85,0,0,1,2.8-2.8l.7-.6a2.65,2.65,0,0,0,.6.5l-.1.1c-1.2,1.7-2.3,3.3-3,3.6Zm2.7,2h0a1.35,1.35,0,0,1-.5-.9,14.58,14.58,0,0,1,1.2-3.9l.3-.8a1.88,1.88,0,0,0,.8.2v.1c-.3,2.2-.5,4.1-.9,4.7a1.46,1.46,0,0,1-.9.6Zm9.7,5.2-1.3.7a25.45,25.45,0,0,0-3.9,2.4,9.66,9.66,0,0,0-2.6,3.4,9.66,9.66,0,0,0-2.6-3.4A25.45,25.45,0,0,0,28,74.1l-1.3-.7c-4-2.3-5.8-4.8-5.5-7.6,1.2,1.9,3.3,3.1,6.5,5a26.16,26.16,0,0,1,3.4,2.4,9,9,0,0,1,2,2.8c.1.4.3.5.5.5s.4-.1.4-.5c.1-1.1.4-5.9.5-7.4.1,1.5.4,6.3.5,7.4,0,.4.2.5.4.5s.3-.1.5-.5a8,8,0,0,1,2-2.8,17.22,17.22,0,0,1,3.4-2.4c3.2-1.9,5.3-3.2,6.5-5C48.2,68.7,46.3,71.2,42.3,73.4Z"/></svg>