<svg id="Layer_1" data-name="Layer 1" xmlns="http://www.w3.org/2000/svg" viewBox="0 0 159.9 71.1"><defs><style>.cls-1{fill:#828282;}</style></defs><title>Artboard 1</title><path class="cls-1" d="M76.2,39.2a4.71,4.71,0,0,1-1.5.6,4.14,4.14,0,0,1-1.6.2,5.66,5.66,0,0,1-1.8-.3,3,3,0,0,1-1.3-.9,2.48,2.48,0,0,1-.8-1.4,7,7,0,0,1-.2-1.6,4.67,4.67,0,0,1,.3-1.7,4.11,4.11,0,0,1,.8-1.3,3.81,3.81,0,0,1,1.3-.9,5.08,5.08,0,0,1,1.7-.3,10,10,0,0,1,1.6.2l1.5.6.5-1a10.09,10.09,0,0,0-1.5-.7,6.28,6.28,0,0,0-1.9-.3,5.43,5.43,0,0,0-4,1.6,3.86,3.86,0,0,0-1.1,1.7,5.71,5.71,0,0,0,0,4.2,6.57,6.57,0,0,0,1.2,1.7,4.52,4.52,0,0,0,1.7,1.1,6.38,6.38,0,0,0,4.1.1,10.09,10.09,0,0,0,1.5-.7l-.5-.9Zm10.4-1.7a3.92,3.92,0,0,1-.8,1.4A3.63,3.63,0,0,1,83,40.1a4.53,4.53,0,0,1-1.6-.3,2.73,2.73,0,0,1-1.2-.9,6.38,6.38,0,0,1-.8-1.4,5,5,0,0,1,0-3.4,3.92,3.92,0,0,1,.8-1.4,3.69,3.69,0,0,1,5.3-.3l.3.3a3.92,3.92,0,0,1,.8,1.4,5,5,0,0,1,0,3.4Zm1.1-3.8A5.28,5.28,0,0,0,85,30.9a5.2,5.2,0,0,0-4,0A4.57,4.57,0,0,0,79.4,32a5.46,5.46,0,0,0-1.6,3.8,5.22,5.22,0,0,0,.4,2.1,6.19,6.19,0,0,0,1.1,1.7,5.08,5.08,0,0,0,3.6,1.5,4.75,4.75,0,0,0,3.6-1.5,5.46,5.46,0,0,0,1.6-3.8,5.22,5.22,0,0,0-.4-2.1ZM96.2,41V40H91.3V30.7H90.2V41Zm7.7,0V40H99V30.7H97.9V41Zm7.5,0V40h-4.9V36.3h4.4v-1h-4.4V31.7h4.9v-1h-6V41Zm7.3-5.1v1h2.7v2.5a6.12,6.12,0,0,1-1.2.5,6.75,6.75,0,0,1-1.4.2,5.08,5.08,0,0,1-1.7-.3,3.92,3.92,0,0,1-2.3-2.3,4.67,4.67,0,0,1-.3-1.7,4.15,4.15,0,0,1,.3-1.6,6.38,6.38,0,0,1,.8-1.4,3.9,3.9,0,0,1,3.1-1.2,5.08,5.08,0,0,1,1.7.3,5.3,5.3,0,0,1,1.5.8l.6-.9a3.51,3.51,0,0,0-.8-.5,4.55,4.55,0,0,0-1.9-.6,4.87,4.87,0,0,0-1.2-.1,5.42,5.42,0,0,0-3.7,1.5,5.23,5.23,0,0,0-1.2,1.7,5.45,5.45,0,0,0-.5,2.2,4.19,4.19,0,0,0,.5,2.2,6.57,6.57,0,0,0,1.2,1.7,5.44,5.44,0,0,0,1.8,1.1,5.22,5.22,0,0,0,2.1.4,7.61,7.61,0,0,0,2.1-.3,5.56,5.56,0,0,0,1.7-.9v-4Zm12,5.1V40h-4.9V36.3h4.4v-1h-4.4V31.7h4.9v-1h-6V41Z"/><path class="cls-1" d="M75.4,26V25H70.5V15.7H69.4V26Zm7.2-3.8H78.8l1.9-4.4ZM85.4,26,80.8,15.6h-.2L76,26h1.2l1.2-2.8H83L84.2,26Zm8.3-3.6a3.92,3.92,0,0,1-.8,1.4,4.19,4.19,0,0,1-1.4.9,4.43,4.43,0,0,1-2,.3h-1a2.2,2.2,0,0,1-.8-.1V16.6c.2,0,.5-.1.7-.1h.9a6.45,6.45,0,0,1,2,.3,4.19,4.19,0,0,1,1.4.9,3.81,3.81,0,0,1,.9,1.3,4.67,4.67,0,0,1,.3,1.7,3.21,3.21,0,0,1-.2,1.7Zm1.1-3.6a4.57,4.57,0,0,0-1.1-1.6,4.18,4.18,0,0,0-1.8-1.1,7.46,7.46,0,0,0-2.6-.4H87.9l-1.2.1V25.9c.4,0,.8.1,1.3.1h1.5a6.9,6.9,0,0,0,2.5-.4,5.67,5.67,0,0,0,1.8-1.2,6.19,6.19,0,0,0,1.1-1.7,6.47,6.47,0,0,0,.4-2,10.55,10.55,0,0,0-.5-1.9ZM98.6,26V15.7H97.5V26Zm8.8,0V25h-4.9V21.3h4.4v-1h-4.4V16.7h4.8v-1h-6V26Zm7.4-3.7a3,3,0,0,0-.4-.8,2.7,2.7,0,0,0-.8-.7,8.27,8.27,0,0,0-1.3-.7,3,3,0,0,1-1.3-.9,1.28,1.28,0,0,1-.4-1,1.7,1.7,0,0,1,.1-.7,1,1,0,0,1,.4-.5,2.09,2.09,0,0,1,.6-.4,2.49,2.49,0,0,1,.8-.1,3.55,3.55,0,0,1,1,.2,4.05,4.05,0,0,1,.9.5l.5-1a3.13,3.13,0,0,0-1-.5,5,5,0,0,0-1.2-.2,5.85,5.85,0,0,0-1.3.2,3.33,3.33,0,0,0-1,.6,2.36,2.36,0,0,0-.6.9,3.59,3.59,0,0,0-.2,1.1,2.77,2.77,0,0,0,.1.9,1.61,1.61,0,0,0,.4.7,2.41,2.41,0,0,0,.8.6c.4.2.7.4,1.1.6s.7.3,1,.5a2.65,2.65,0,0,1,.6.5c.1.2.2.3.3.5a1.27,1.27,0,0,1,.1.6,1.7,1.7,0,0,1-.1.7,1.84,1.84,0,0,1-1,1,1.18,1.18,0,0,1-.8.1,4.3,4.3,0,0,1-1.2-.2,4.73,4.73,0,0,1-1.2-.7l-.5,1a6.11,6.11,0,0,0,1.4.7,2.85,2.85,0,0,0,1.6.2,4.3,4.3,0,0,0,1.2-.2,2.07,2.07,0,0,0,1-.6,5.5,5.5,0,0,0,.7-.9,2.54,2.54,0,0,0,.2-1.2,2.51,2.51,0,0,1-.5-.8Zm2.7-6.5a.45.45,0,0,0-.6-.2.68.68,0,0,0-.7.7h0a.68.68,0,0,0,.7.7c-.1.2-.2.5-.3.7a4.35,4.35,0,0,1-.6.7l.2.2a3,3,0,0,0,.7-.5,1.76,1.76,0,0,0,.4-.5l.3-.6a.9.9,0,0,0,.1-.5A1.45,1.45,0,0,0,117.5,15.8Z"/><path class="cls-1" d="M76.2,8.7a4.71,4.71,0,0,1-1.5.6,4.14,4.14,0,0,1-1.6.2,5.66,5.66,0,0,1-1.8-.3A3,3,0,0,1,70,8.3,7.62,7.62,0,0,1,69.3,7,4.67,4.67,0,0,1,69,5.3a5.08,5.08,0,0,1,.3-1.7,6.38,6.38,0,0,1,.8-1.4,3.81,3.81,0,0,1,1.3-.9A4.67,4.67,0,0,1,73.1,1a10,10,0,0,1,1.6.2l1.5.6.5-1A10.09,10.09,0,0,0,75.2.1c-.7,0-1.4-.1-2-.1A5.7,5.7,0,0,0,71,.4a6.19,6.19,0,0,0-1.7,1.1,3.86,3.86,0,0,0-1.1,1.7,5.22,5.22,0,0,0-.4,2.1,5.22,5.22,0,0,0,.4,2.1,6.57,6.57,0,0,0,1.2,1.7,4.52,4.52,0,0,0,1.7,1.1,5.38,5.38,0,0,0,2.2.4,6.28,6.28,0,0,0,1.9-.3,10.09,10.09,0,0,0,1.5-.7l-.5-.9ZM86,10.5V.2H84.9V4.8H79.4V.2H78.3V10.5h1.1V5.8h5.5v4.7Zm8.4,0v-1H89.5V5.8h4.4v-1H89.5V1.2h4.9V.2h-6V10.5Zm8.1,0v-1H97.6V.2H96.5V10.5ZM110,1.2V.2h-8v1h3.4v9.2h1.1V1.2Zm7.6,9.3v-1h-4.9V5.8h4.4v-1h-4.4V1.2h4.9V.2h-6V10.5Zm10.1.1V.2h-1.1V7.9L120,0l-.2.1V10.5h1.1V2.7l6.7,8,.1-.1Zm10.3-.1V.2h-1.1V4.8h-5.5V.2h-1.1V10.5h1.1V5.8h5.5v4.7Zm7.9-3.8h-3.8L144,2.3Zm2.9,3.8L144.1,0H144l-4.7,10.5h1.2l1.2-2.8h4.6l1.2,2.8Zm11.1,0L159.6,0h-.2L155,7.8,150.6,0h-.2L150,10.4h1.1l.1-7.3,3.7,6.2h.1l3.6-6.2.1,7.2Z"/><path class="cls-1" d="M3,5.9c1.7-.1,2.8.1,2.9.6a2.92,2.92,0,0,1-.2.9c-.1.5-.2.9-.3,1.4a7.58,7.58,0,0,0,0,3,5,5,0,0,0,.5,1.3l.1.1H6a6.41,6.41,0,0,0,1.3,1.9l.1.1h0a8.32,8.32,0,0,0,3,2,9.38,9.38,0,0,0,2.4.6c-.3,1.5-.7,2.2-1.8,2.3h-.4a2.92,2.92,0,0,1-.9-.2c-.3-.1-.6.2-.2.4a2.28,2.28,0,0,0,1.1.3h1.5a7.39,7.39,0,0,1,3.3.2.19.19,0,0,0,.3-.1c0-.1,0-.3-.1-.3a3.19,3.19,0,0,0-2.1-.4,1.21,1.21,0,0,0,.5-.5A7.17,7.17,0,0,0,15.1,18a8.15,8.15,0,0,0,3.1-.6,7.74,7.74,0,0,0,1.6.7,6.14,6.14,0,0,0,4.6-.3h0a4.2,4.2,0,0,0,2.9-.9c.2-.2.2-.4-.2-.4-1.5.3-3.2-.4-5.2-2.2a6.59,6.59,0,0,0,3.5-4.6,5.22,5.22,0,0,0-2.1-.4,8.3,8.3,0,0,0,.6-2.1A8.89,8.89,0,0,0,16,9.5a8.39,8.39,0,0,0-3.9-1.9L11.9,7a5,5,0,0,0-1.7-3.2,3.58,3.58,0,0,0-3-.5A2.94,2.94,0,0,0,5.6,4.8a4.39,4.39,0,0,0-2.7.9C2.7,5.7,2.8,6,3,5.9Zm4,6.3A3.72,3.72,0,0,0,6.8,14a3.39,3.39,0,0,1-.4-3.5A4,4,0,0,1,8.9,8.4a12.09,12.09,0,0,0,.5,1.8,1.42,1.42,0,0,0-.6.2A3.19,3.19,0,0,0,7,12.2Zm.2.9A2.73,2.73,0,0,1,9,10.9c.2-.1.4-.1.6-.2a16.18,16.18,0,0,0,1,1.8,2.66,2.66,0,0,0-1.2.3,2.17,2.17,0,0,0-1.1,2.8h0a2.59,2.59,0,0,1-1.1-2.5Zm3.4,3.8a4.67,4.67,0,0,1-1-.5h0A1.83,1.83,0,0,1,8.7,14a2,2,0,0,1,.9-.9A3.21,3.21,0,0,1,11,13a6.9,6.9,0,0,0,2.4,1.8,17.66,17.66,0,0,0-.4,2l-.1.7c-.8-.2-1.6-.4-2.3-.6Zm1.6,3.3c.7-.6.9-1.4,1.3-3.4a16.25,16.25,0,0,1,.4-1.9,12.09,12.09,0,0,0,1.8.5c-.6,1.9-1.6,4.3-3.5,4.8Zm3.2-2.6a10.66,10.66,0,0,0,.7-1.9,10.7,10.7,0,0,0,1.6,1.4,8.56,8.56,0,0,1-2.3.5Zm4.5.1a7.21,7.21,0,0,1-3.3-2.1h1.1c.4,0,.8-.1,1.2-.1a8.84,8.84,0,0,0,4.5,2.3,6.93,6.93,0,0,1-3.5-.1Zm6.2-.6c-1.6.6-4.1.2-6.6-1.8a10.56,10.56,0,0,0,1.9-.6A8.51,8.51,0,0,0,26.1,17.1Zm-9-7.9a8.53,8.53,0,0,1,6.2-1.5,4.92,4.92,0,0,1-.6,1.7,6.5,6.5,0,0,0-3.1.8,5.67,5.67,0,0,0-2.5,2.1,4.55,4.55,0,0,1-2-.5,6.3,6.3,0,0,1,2-2.6Zm5.3.7a5.92,5.92,0,0,1-4.7,2.4h0a5.37,5.37,0,0,1,2.1-1.6,7.86,7.86,0,0,1,2.6-.8Zm-6.8,0a9.06,9.06,0,0,0-1.1,1.6,5.29,5.29,0,0,1-2.2-3.1l-.1-.2a7.81,7.81,0,0,1,3.4,1.7ZM7.1,5.5a.45.45,0,0,0,.6-.3c.1-.1,0-.3,0-.4.3,0,.5.1.5.4v.1c0,.2-.1.4-.3.4-.2.2.1.5.4.3a.63.63,0,0,0,.4-.8.92.92,0,0,0-1-.9,1.85,1.85,0,0,0-.7.2c0,.1-.1.2-.1.4-.3-.1-.5-.1-.8-.2a2,2,0,0,1,1.2-.8,3,3,0,0,1,2.6.4,4.53,4.53,0,0,1,1.5,2.9,6.47,6.47,0,0,0,.4,1.3,5.84,5.84,0,0,0,5.9,4.3A6.17,6.17,0,0,0,23,9.9a5.23,5.23,0,0,1,1.8.3c-.7,2.7-3.6,4.7-7.2,4.9a7.63,7.63,0,0,1-6.7-3A9.89,9.89,0,0,1,9.2,7.7a4.49,4.49,0,0,0-3.5,3.5,5.83,5.83,0,0,1,.2-2.3,5.64,5.64,0,0,1,.4-1.2,2.34,2.34,0,0,0,.2-1.1c-.1-.7-.8-1-2.4-1a4.44,4.44,0,0,1,3-.1Z"/><path class="cls-1" d="M31.4,5.9c1.7-.1,2.8.1,2.9.6a2.92,2.92,0,0,1-.2.9,5,5,0,0,0-.4,1.3,7.57,7.57,0,0,0,0,3c.1.5.3.9.4,1.3v.1h0A6.41,6.41,0,0,0,35.4,15l.1.1h0a8.32,8.32,0,0,0,3,2,9.77,9.77,0,0,0,2.3.6c-.3,1.5-.7,2.2-1.8,2.3h-.4a2.92,2.92,0,0,1-.9-.2c-.3-.1-.6.2-.2.4a2.28,2.28,0,0,0,1.1.3h1.5a7.39,7.39,0,0,1,3.3.2.19.19,0,0,0,.3-.1c0-.1,0-.3-.1-.3a3.19,3.19,0,0,0-2.1-.4,1.21,1.21,0,0,0,.5-.5,7.17,7.17,0,0,0,1.1-1.5,8.15,8.15,0,0,0,3.1-.6,7.74,7.74,0,0,0,1.6.7,6.14,6.14,0,0,0,4.6-.3h0a4.36,4.36,0,0,0,2.9-.9c.2-.2.2-.4-.2-.4-1.5.3-3.2-.4-5.2-2.2a6.59,6.59,0,0,0,3.5-4.6,7.85,7.85,0,0,0-2.2-.5A8.3,8.3,0,0,0,51.8,7a8.83,8.83,0,0,0-7.9,2.2A8.39,8.39,0,0,0,40,7.3l-.1-.5a5,5,0,0,0-1.7-3.2,3.58,3.58,0,0,0-3-.5,2.48,2.48,0,0,0-1.6,1.4,4.39,4.39,0,0,0-2.7.9C31,5.7,31.1,6,31.4,5.9Zm3.9,6.3a3.72,3.72,0,0,0-.2,1.8,3.39,3.39,0,0,1-.4-3.5,4,4,0,0,1,2.5-2.1,12.09,12.09,0,0,0,.5,1.8,1.42,1.42,0,0,0-.6.2A3.19,3.19,0,0,0,35.3,12.2Zm.3.9a2.73,2.73,0,0,1,1.8-2.2c.2-.1.4-.1.6-.2a16.18,16.18,0,0,0,1,1.8,2.66,2.66,0,0,0-1.2.3,2.06,2.06,0,0,0-1.1,2.8v.1a2.46,2.46,0,0,1-1.1-2.6Zm3.3,3.8a4.67,4.67,0,0,1-1-.5h0A1.83,1.83,0,0,1,37,14a2,2,0,0,1,.9-.9,3.19,3.19,0,0,1,1.4-.3,6.9,6.9,0,0,0,2.4,1.8,17.66,17.66,0,0,0-.4,2l-.1.7a9.26,9.26,0,0,1-2.3-.4Zm1.6,3.3c.7-.6.9-1.4,1.3-3.4a16.25,16.25,0,0,1,.4-1.9,12.09,12.09,0,0,0,1.8.5c-.5,1.9-1.6,4.3-3.5,4.8Zm3.2-2.6a10.66,10.66,0,0,0,.7-1.9A10.7,10.7,0,0,0,46,17.1a8.56,8.56,0,0,1-2.3.5Zm4.6.1A7.21,7.21,0,0,1,45,15.6h1.1c.4,0,.8-.1,1.2-.1a8.84,8.84,0,0,0,4.5,2.3,8.22,8.22,0,0,1-3.5-.1Zm6.2-.6c-1.6.6-4.2.2-6.6-1.8a10.56,10.56,0,0,0,1.9-.6A8.51,8.51,0,0,0,54.5,17.1Zm-9-7.9a8.53,8.53,0,0,1,6.2-1.5,4.92,4.92,0,0,1-.6,1.7,7.22,7.22,0,0,0-3.2.8,5.67,5.67,0,0,0-2.5,2.1,4.55,4.55,0,0,1-2-.5,7.55,7.55,0,0,1,2.1-2.6Zm5.2.7A5.92,5.92,0,0,1,46,12.3h0a5.37,5.37,0,0,1,2.1-1.6,8.65,8.65,0,0,1,2.6-.8ZM44,9.9a9.06,9.06,0,0,0-1.1,1.6,5.94,5.94,0,0,1-2.3-3.1l-.1-.2A8.8,8.8,0,0,1,44,9.9ZM35.5,5.5a.45.45,0,0,0,.6-.3c.1-.1,0-.3,0-.4.3,0,.5.1.5.4v.1c0,.2-.1.4-.3.4-.3.2,0,.5.3.3a.63.63,0,0,0,.4-.8.92.92,0,0,0-1-.9,1.85,1.85,0,0,0-.7.2c-.1.1-.2.2-.2.3a2.2,2.2,0,0,0-.8-.1,2.73,2.73,0,0,1,1.2-.9,3,3,0,0,1,2.6.4,4.53,4.53,0,0,1,1.5,2.9A6.47,6.47,0,0,0,40,8.4a5.84,5.84,0,0,0,5.9,4.3,6.43,6.43,0,0,0,5.3-2.9,5.23,5.23,0,0,1,1.8.3c-.5,2.9-3.4,4.9-7,5a7.89,7.89,0,0,1-6.7-3,9.89,9.89,0,0,1-1.7-4.4A4.5,4.5,0,0,0,34,11.1a5.83,5.83,0,0,1,.2-2.3l.3-1.2a2.34,2.34,0,0,0,.2-1.1c-.1-.7-.8-1-2.4-1A5.8,5.8,0,0,1,35.5,5.5Z"/><path class="cls-1" d="M0,.2V28.9C0,45.7,10.4,61,28.6,71l.1.1.1-.1C47,61,57.4,45.6,57.4,28.8V.2ZM50.3,51,29,35.4a.19.19,0,0,0-.3,0L7.2,51A42,42,0,0,1,1.9,38.7L28.8,19.1,55.7,38.7A43.49,43.49,0,0,1,50.3,51ZM28.8,70.4c-9.2-5.1-16.4-11.6-21.2-19L28.8,36,50,51.5C45.2,58.8,38,65.3,28.8,70.4ZM56.9,28.9a40.61,40.61,0,0,1-1.1,9.2L29,18.5a.19.19,0,0,0-.3,0L1.7,38.1A40.61,40.61,0,0,1,.6,28.9V.8H56.9Z"/><path class="cls-1" d="M40.2,53.6a.2.2,0,0,0-.4,0c-.8,1.9-2.2,2.8-5.7,4.9-1.8,1.1-3.7,2.2-4.4,4.2-.1-1-.2-2.3-.2-2.9q-.15-1.35-.3-3a1.56,1.56,0,0,0,1.2.6c.5-.1.9-.9,1-1.3a1.27,1.27,0,0,0-.1-.6c.1.2.3.3.5.5a1.84,1.84,0,0,0,1.6.2,1.61,1.61,0,0,0,.3-1.6l-.3-.6.6.3a1.94,1.94,0,0,0,1.6-.5,2.13,2.13,0,0,0-.3-1.6,1.76,1.76,0,0,0-.5-.4h.7c.4-.1,1.2-.6,1.2-1.1a1.7,1.7,0,0,0-1-1.3,1.48,1.48,0,0,0-.7-.1c.2-.1.4-.1.6-.3a2,2,0,0,0,.7-1.5c-.1-.5-1-.8-1.4-.8-.2,0-.4.1-.7.1a1,1,0,0,0,.4-.5,1.53,1.53,0,0,0,0-1.6,1.84,1.84,0,0,0-1.6-.2,1,1,0,0,0-.5.4,1.42,1.42,0,0,0,.2-.6c0-.4-.2-1.3-.7-1.5a1.84,1.84,0,0,0-1.6.5l-.3.6a2,2,0,0,0-.1-.7c-.1-.4-.7-1.1-1.2-1.1s-1.1.7-1.2,1.1a1.48,1.48,0,0,0-.1.7l-.3-.6a1.84,1.84,0,0,0-1.6-.5c-.5.2-.7,1.1-.7,1.5a1.42,1.42,0,0,0,.2.6,1.76,1.76,0,0,0-.5-.4,1.57,1.57,0,0,0-1.6.2,1.53,1.53,0,0,0,0,1.6,2.18,2.18,0,0,0,.4.5,1.27,1.27,0,0,0-.6-.1c-.4,0-1.3.3-1.4.8a2,2,0,0,0,.7,1.5l.6.3c-.2,0-.4.1-.7.1a1.89,1.89,0,0,0-1,1.3c0,.5.8,1,1.2,1.1h.7a1,1,0,0,0-.5.4,1.8,1.8,0,0,0-.4,1.6,1.84,1.84,0,0,0,1.6.5c.2-.1.4-.1.6-.3l-.3.6a1.56,1.56,0,0,0,.4,1.6,1.84,1.84,0,0,0,1.6-.2c.2-.1.3-.3.5-.5a1.48,1.48,0,0,0-.1.7,1.66,1.66,0,0,0,1,1.3,1.43,1.43,0,0,0,1.2-.6c-.1,1-.2,2.1-.2,2.9,0,.6-.2,1.9-.2,2.9-.7-1.9-2.6-3.1-4.4-4.2-3.5-2.1-4.9-3-5.7-4.9a.2.2,0,0,0-.4,0c-1,3.2.6,5.8,4.7,8.2l1.1.6a23.24,23.24,0,0,1,3.1,1.9,7,7,0,0,1,2.3,3.5c0,.1.1.1.2.2h0a.22.22,0,0,0,.2-.2,7.42,7.42,0,0,1,2.3-3.5,24.9,24.9,0,0,1,3-1.9l1.2-.6C39.6,59.4,41.2,56.8,40.2,53.6Zm-9.9,3.3a1.59,1.59,0,0,1-.9-.6,11.24,11.24,0,0,1-.4-4.1c.2,0,.4-.1.6-.1A13.78,13.78,0,0,1,30.9,56,1.46,1.46,0,0,1,30.3,56.9Zm-1.5-5.1a2,2,0,1,1,2-2,2,2,0,0,1-2,2Zm4.3,3.9a1.23,1.23,0,0,1-1-.2A13.06,13.06,0,0,1,30,51.9a1,1,0,0,0,.5-.4,11.39,11.39,0,0,1,2.7,3.1,1.38,1.38,0,0,1-.1,1.1Zm1.7-3.3a1.69,1.69,0,0,1,.3,1,1.69,1.69,0,0,1-1,.3,11.19,11.19,0,0,1-3.3-2.4c.1-.2.2-.3.3-.5A10.16,10.16,0,0,1,34.8,52.4Zm.5-2.7a1.34,1.34,0,0,1,.7.8c0,.2-.5.6-.8.7a13.54,13.54,0,0,1-4-.8c0-.2.1-.4.1-.6v-.1A13.41,13.41,0,0,1,35.3,49.7Zm-.5-2.6a1.39,1.39,0,0,1,1,.5,1.05,1.05,0,0,1-.5.9,13.67,13.67,0,0,1-4,.9,1.42,1.42,0,0,0-.2-.6,10.38,10.38,0,0,1,3.7-1.7Zm-1.7-2.2a2,2,0,0,1,1.1,0,1.18,1.18,0,0,1-.1,1,10.76,10.76,0,0,1-3.2,2.4l-.1.1c-.1-.2-.3-.3-.4-.5A11.16,11.16,0,0,1,33.1,44.9Zm-2.3-1.4a1.28,1.28,0,0,1,1-.4,1.78,1.78,0,0,1,.4,1,12.21,12.21,0,0,1-2,3.5l-.2.1-.6-.3a14,14,0,0,1,1.4-3.9ZM28,43.2c.1-.3.5-.8.7-.8s.6.5.7.8a14,14,0,0,1-.4,4.1h-.6A14,14,0,0,1,28,43.2Zm-2.2-.1a1.28,1.28,0,0,1,1,.4,12.81,12.81,0,0,1,1.3,3.9c-.2.1-.4.1-.6.2a12.74,12.74,0,0,1-2-3.6A1.61,1.61,0,0,1,25.8,43.1ZM23.4,46a1.38,1.38,0,0,1-.1-1.1,2,2,0,0,1,1.1,0,13.32,13.32,0,0,1,2.8,3,1,1,0,0,0-.4.5A17.22,17.22,0,0,1,23.4,46Zm-1.1,2.5a1.19,1.19,0,0,1-.5-.9,1.91,1.91,0,0,1,1-.5,11.71,11.71,0,0,1,3.8,1.7,1.42,1.42,0,0,0-.2.6A14.33,14.33,0,0,1,22.3,48.5Zm0,2.7c-.3-.1-.8-.5-.8-.7a1.34,1.34,0,0,1,.7-.8,14.08,14.08,0,0,1,4.1,0v.1a1.27,1.27,0,0,0,.1.6A14.89,14.89,0,0,1,22.3,51.2Zm1.1,2.5a1.69,1.69,0,0,1-1-.3,1.69,1.69,0,0,1,.3-1,12.45,12.45,0,0,1,3.7-1.7,2.19,2.19,0,0,0,.3.5,9,9,0,0,1-3.3,2.5Zm2,1.8a1.8,1.8,0,0,1-1,.2,1.18,1.18,0,0,1-.1-1A13.39,13.39,0,0,1,27,51.6c.2.1.3.3.5.4a9.1,9.1,0,0,1-2.1,3.5Zm2.6.8a1.59,1.59,0,0,1-.9.6c-.2,0-.5-.6-.6-.9a10.74,10.74,0,0,1,1.4-3.9,1.27,1.27,0,0,0,.6.1,8.18,8.18,0,0,1-.5,4.1Zm7.2,5-1.1.7A16.07,16.07,0,0,0,31,63.9,6.82,6.82,0,0,0,28.8,67a7.65,7.65,0,0,0-2.2-3.1,21.37,21.37,0,0,0-3.2-2l-1-.6c-3.6-2-5.1-4.3-4.6-6.9,1,1.7,2.7,2.8,5.6,4.5A19.41,19.41,0,0,1,26.3,61a6.22,6.22,0,0,1,1.8,3,.2.2,0,0,0,.4,0c0-1,.3-6.1.4-7.2h0c.1,1,.4,6.1.4,7.2a.2.2,0,0,0,.4,0,6.22,6.22,0,0,1,1.8-3,16.1,16.1,0,0,1,3-2.1c2.9-1.7,4.6-2.8,5.6-4.5.5,2.6-1,4.9-4.6,6.9Z"/><path class="cls-1" d="M25.7,33h-.2a.37.37,0,0,1-.1-.3l1.1-3.5-3-2.2a.19.19,0,0,1,0-.3c0-.1.1-.1.2-.1h3.7l1.2-3.5a.22.22,0,0,1,.2-.2h0a.22.22,0,0,1,.2.2l1.1,3.5h3.7c.1,0,.2.1.3.2s0,.2-.1.2l-3,2.2,1.1,3.5c0,.1,0,.3-.2.3h-.2l-3-2.2-3,2.2Zm-1.2-5.9L27,28.9a.37.37,0,0,1,.1.3l-.9,2.9,2.5-1.8a.19.19,0,0,1,.3,0l2.5,1.8-1-2.9a.37.37,0,0,1,.1-.3l2.5-1.8H30a.22.22,0,0,1-.2-.2l-1-2.9-1,2.9a.22.22,0,0,1-.2.2Z"/><path class="cls-1" d="M17.4,42.1h-.1l-3-2.2-2.9,2.2a.3.3,0,0,1-.4,0c-.1-.1-.1-.2,0-.2l1.1-3.5-3-2.2c-.2-.1-.2-.2-.1-.4s.1-.1.2-.1h3.7L14,32.2c.1-.1.2-.2.3-.1a.1.1,0,0,1,.1.1l1.1,3.5h3.7a.22.22,0,0,1,.2.2c0,.1,0,.2-.1.2l-3,2.2,1.1,3.5q.3.3,0,.3ZM10,36.2,12.5,38a.37.37,0,0,1,.1.3l-1,2.9,2.5-1.8a.19.19,0,0,1,.3,0l2.5,1.8-1-2.9A.37.37,0,0,1,16,38l2.5-1.8H15.4a.22.22,0,0,1-.2-.2l-.9-2.9-1,3a.22.22,0,0,1-.2.2Z"/><path class="cls-1" d="M40.2,42.1c-.1,0-.3-.1-.3-.2v-.1L41,38.3l-3-2.2a.37.37,0,0,1-.1-.3c0-.1.1-.1.2-.1h3.7l1.1-3.5c.1-.1.1-.1.2-.1h0a.22.22,0,0,1,.2.2l1.1,3.5h3.7c.1,0,.2.1.3.2s0,.2-.1.2l-3,2.2,1.1,3.5a.37.37,0,0,1-.1.3h-.2l-3-2.2-2.9,2.1Zm3.1-2.7h.2L46,41.2l-1-2.9a.37.37,0,0,1,.1-.3l2.5-1.8h-3c-.1,0-.2,0-.2-.1l-1-3-1,2.9a.22.22,0,0,1-.2.2h-3L41.7,38a.37.37,0,0,1,.1.3l-1,2.9,2.5-1.8Z"/></svg>