<svg id="Layer_2" data-name="Layer 2" xmlns="http://www.w3.org/2000/svg" viewBox="0 0 84.59 84.59"><defs><style>.cls-1{fill:none;stroke:silver;stroke-linecap:round;stroke-linejoin:round;stroke-width:1.5px;}</style></defs><title>Artboard 1</title><path class="cls-1" d="M58.53,17.8a3.74,3.74,0,0,0-.32-.39A10.88,10.88,0,0,0,39.63,25l0,15.88"/><path class="cls-1" d="M68.78,10.54A39.64,39.64,0,0,0,42.3,1,40,40,0,0,0,12.93,13.18,40,40,0,0,0,.75,42.55,40,40,0,0,0,12.92,71.92,40,40,0,0,0,42.3,84.09a39.79,39.79,0,0,0,26.49-9.51q1.44-1.23,2.88-2.67A40,40,0,0,0,83.84,42.55,40,40,0,0,0,71.67,13.18c-1-1-1.92-1.82-2.88-2.63Z"/><line class="cls-1" x1="49.56" y1="40.87" x2="39.59" y2="40.87"/><line class="cls-1" x1="39.59" y1="40.87" x2="31.37" y2="40.87"/><line class="cls-1" x1="39.59" y1="40.87" x2="39.59" y2="73.84"/></svg>