<svg id="Layer_3" data-name="Layer 3" xmlns="http://www.w3.org/2000/svg" viewBox="0 0 84.59 84.59"><defs><style>.cls-1{fill:none;stroke:silver;stroke-linecap:round;stroke-linejoin:round;stroke-width:1.5px;}</style></defs><title>Artboard 1</title><path class="cls-1" d="M42,.75A40,40,0,0,0,12.67,12.93,40,40,0,0,0,.5,42.3,40,40,0,0,0,12.67,71.67,40,40,0,0,0,42,83.84a40.76,40.76,0,0,0,17.37-3.67,41.68,41.68,0,0,0,12-8.51A40,40,0,0,0,83.59,42.3,40,40,0,0,0,71.42,12.93,40,40,0,0,0,42,.75Z"/><path class="cls-1" d="M30.47,20.4H59.63c3.31,0,5,1.67,5,5V59.53c0,3.31-1.67,5-5,5H25.49c-3.31,0-5-1.67-5-5V25.39c0-3,1.35-4.67,4.09-4.91"/><line class="cls-1" x1="24.6" y1="20.47" x2="24.6" y2="29.55"/><path class="cls-1" d="M53.86,41.12A11.6,11.6,0,0,0,42.4,31,11.68,11.68,0,0,0,30.94,41.12c0,.46-.07,1-.07,1.5a10.88,10.88,0,0,0,3.38,8.15,11.16,11.16,0,0,0,8.15,3.38,11.28,11.28,0,0,0,8.19-3.38A11.15,11.15,0,0,0,54,42.62q-.05-.8-.11-1.5Z"/><line class="cls-1" x1="27.56" y1="20.4" x2="30.47" y2="20.4"/><path class="cls-1" d="M24.6,20.47a6.36,6.36,0,0,1,.89-.07h2.07"/><line class="cls-1" x1="30.47" y1="20.4" x2="30.47" y2="29.55"/><line class="cls-1" x1="27.56" y1="20.4" x2="27.56" y2="29.55"/><path class="cls-1" d="M37,48a7.65,7.65,0,0,0,10.75,0,7.25,7.25,0,0,0,2.17-4.41,8.83,8.83,0,0,0,.07-1,7.39,7.39,0,0,0-2.24-5.41A7.14,7.14,0,0,0,42.36,35,7.09,7.09,0,0,0,37,37.21a7.39,7.39,0,0,0-2.24,5.41,8.81,8.81,0,0,0,.07,1A7.25,7.25,0,0,0,37,48Z"/></svg>