<svg id="Layer_4" data-name="Layer 4" xmlns="http://www.w3.org/2000/svg" viewBox="0 0 84.59 84.59"><defs><style>.cls-1{fill:none;stroke:silver;stroke-linecap:round;stroke-linejoin:round;stroke-width:1.5px;}</style></defs><title>Artboard 1</title><path class="cls-1" d="M58.14,56.47V40.27A11.67,11.67,0,0,0,46.46,28.84,11.68,11.68,0,0,0,34.78,40.23"/><path class="cls-1" d="M29.23,21.86a2.41,2.41,0,1,0,.71,1.71,2.34,2.34,0,0,0-.71-1.71Z"/><line class="cls-1" x1="34.78" y1="56.47" x2="34.78" y2="40.23"/><line class="cls-1" x1="34.78" y1="40.23" x2="34.78" y2="29.69"/><path class="cls-1" d="M71.31,12.93A40,40,0,0,0,41.94.75,40,40,0,0,0,12.57,12.93,40,40,0,0,0,.39,42.3,40,40,0,0,0,12.57,71.67,40,40,0,0,0,41.94,83.84a40.74,40.74,0,0,0,17.37-3.67,41.71,41.71,0,0,0,12-8.51A40,40,0,0,0,83.49,42.3,40,40,0,0,0,71.31,12.93Z"/><line class="cls-1" x1="27.09" y1="56.47" x2="27.09" y2="29.69"/></svg>