<svg id="Layer_1" data-name="Layer 1" xmlns="http://www.w3.org/2000/svg" viewBox="0 0 84.59 84.59"><defs><style>.cls-1{fill:none;stroke:silver;stroke-linecap:round;stroke-linejoin:round;stroke-width:1.5px;}</style></defs><title>Artboard 1</title><path class="cls-1" d="M62.66,30.16a33.8,33.8,0,0,0,3.74-4.41c-1.46.46-3,.89-4.52,1.35-.53.11-1.1.21-1.64.28L59.81,27a9.49,9.49,0,0,0-7.16-3,9.49,9.49,0,0,0-7.16,3,9.49,9.49,0,0,0-3,7.16,11,11,0,0,0,.21,2.17q-12.39.16-20.93-10.15c-2.17,4.84-1.25,9.33,2.71,13.49a7.23,7.23,0,0,1-4.06-1.07s-.07,0-.11-.07a12.5,12.5,0,0,0,.21,1.71c.75,3.81,3.35,6.59,7.83,8.33a6.47,6.47,0,0,1-5.95-.11c2,4,5.52,6.44,10.64,7.3A18.63,18.63,0,0,1,20.83,60a26.92,26.92,0,0,0,14.35,3.88l1.35,0a27.24,27.24,0,0,0,18.41-8.19,26.91,26.91,0,0,0,8.22-19.79c0-.82,0-1.6-.07-2.39A13.69,13.69,0,0,0,67.72,29a12.12,12.12,0,0,1-5.06,1.17Z"/><polygon class="cls-1" points="62.66 30.16 62.62 30.16 62.66 30.16 62.66 30.16"/><path class="cls-1" d="M42.3.75A40,40,0,0,0,12.92,12.93c-.78.78-1.53,1.57-2.24,2.38a39.83,39.83,0,0,0-9.93,27,39.83,39.83,0,0,0,9.93,27c.71.82,1.46,1.6,2.24,2.39A40,40,0,0,0,42.3,83.84,40,40,0,0,0,71.67,71.67,40,40,0,0,0,83.84,42.3,40,40,0,0,0,71.67,12.93,40,40,0,0,0,42.3.75Z"/></svg>